<svg id="eAFYybTv4zo1" xmlns="http://www.w3.org/2000/svg" xmlns:xlink="http://www.w3.org/1999/xlink" viewBox="360 70 1500 1500" shape-rendering="geometricPrecision" text-rendering="geometricPrecision" project-id="05016d1ab8454be7b8a568922d0ba0d7" export-id="34b5a40343d5483bafad7af51203370c" cached="false"><defs><linearGradient id="eAFYybTv4zo24-fill" x1="348.282" y1="828.083" x2="1125.37" y2="828.083" spreadMethod="pad" gradientUnits="userSpaceOnUse" gradientTransform="translate(0 0)"><stop id="eAFYybTv4zo24-fill-0" offset="0%" stop-color="#7620cd"/><stop id="eAFYybTv4zo24-fill-1" offset="100%" stop-color="#720ab7"/></linearGradient><linearGradient id="eAFYybTv4zo25-fill" x1="369.679" y1="532.256" x2="1153.87" y2="532.256" spreadMethod="pad" gradientUnits="userSpaceOnUse" gradientTransform="translate(0 0)"><stop id="eAFYybTv4zo25-fill-0" offset="0%" stop-color="#8d2efc"/><stop id="eAFYybTv4zo25-fill-1" offset="100%" stop-color="#9313e6"/></linearGradient><linearGradient id="eAFYybTv4zo28-fill" x1="364.846" y1="596.765" x2="470.638" y2="596.765" spreadMethod="pad" gradientUnits="userSpaceOnUse" gradientTransform="translate(0 0)"><stop id="eAFYybTv4zo28-fill-0" offset="0%" stop-color="#b2ddef"/><stop id="eAFYybTv4zo28-fill-1" offset="100%" stop-color="#29a7df"/></linearGradient><linearGradient id="eAFYybTv4zo29-fill" x1="462.78" y1="650.012" x2="560.961" y2="650.012" spreadMethod="pad" gradientUnits="userSpaceOnUse" gradientTransform="translate(0 0)"><stop id="eAFYybTv4zo29-fill-0" offset="0%" stop-color="#b2ddef"/><stop id="eAFYybTv4zo29-fill-1" offset="100%" stop-color="#29a7df"/></linearGradient><linearGradient id="eAFYybTv4zo31-fill" x1="411.239" y1="794.066" x2="524.899" y2="794.066" spreadMethod="pad" gradientUnits="userSpaceOnUse" gradientTransform="translate(0 0)"><stop id="eAFYybTv4zo31-fill-0" offset="0%" stop-color="#f38c96"/><stop id="eAFYybTv4zo31-fill-1" offset="100%" stop-color="#ed5391"/></linearGradient><linearGradient id="eAFYybTv4zo36-fill" x1="783.643" y1="653.503" x2="942.597" y2="653.503" spreadMethod="pad" gradientUnits="userSpaceOnUse" gradientTransform="translate(0 0)"><stop id="eAFYybTv4zo36-fill-0" offset="0%" stop-color="#f38c96"/><stop id="eAFYybTv4zo36-fill-1" offset="100%" stop-color="#ed5391"/></linearGradient><linearGradient id="eAFYybTv4zo40-fill" x1="747.825" y1="702.489" x2="917.236" y2="702.489" spreadMethod="pad" gradientUnits="userSpaceOnUse" gradientTransform="translate(0 0)"><stop id="eAFYybTv4zo40-fill-0" offset="0.36%" stop-color="#3ac3e3"/><stop id="eAFYybTv4zo40-fill-1" offset="100%" stop-color="#584e9f"/></linearGradient><linearGradient id="eAFYybTv4zo41-fill" x1="693.407" y1="650.084" x2="855.72" y2="650.084" spreadMethod="pad" gradientUnits="userSpaceOnUse" gradientTransform="translate(0 0)"><stop id="eAFYybTv4zo41-fill-0" offset="0.36%" stop-color="#3ac3e3"/><stop id="eAFYybTv4zo41-fill-1" offset="100%" stop-color="#584e9f"/></linearGradient><linearGradient id="eAFYybTv4zo58-fill" x1="628.173" y1="511.444" x2="784.229" y2="511.444" spreadMethod="pad" gradientUnits="userSpaceOnUse" gradientTransform="translate(0 0)"><stop id="eAFYybTv4zo58-fill-0" offset="0%" stop-color="#75c0df"/><stop id="eAFYybTv4zo58-fill-1" offset="29.2%" stop-color="#759cda"/><stop id="eAFYybTv4zo58-fill-2" offset="56.51%" stop-color="#7681d6"/><stop id="eAFYybTv4zo58-fill-3" offset="80.92%" stop-color="#7672d4"/><stop id="eAFYybTv4zo58-fill-4" offset="100%" stop-color="#766cd3"/></linearGradient><linearGradient id="eAFYybTv4zo59-fill" x1="647.596" y1="554.089" x2="845.436" y2="554.089" spreadMethod="pad" gradientUnits="userSpaceOnUse" gradientTransform="translate(0 0)"><stop id="eAFYybTv4zo59-fill-0" offset="0%" stop-color="#75c0df"/><stop id="eAFYybTv4zo59-fill-1" offset="29.2%" stop-color="#759cda"/><stop id="eAFYybTv4zo59-fill-2" offset="56.51%" stop-color="#7681d6"/><stop id="eAFYybTv4zo59-fill-3" offset="80.92%" stop-color="#7672d4"/><stop id="eAFYybTv4zo59-fill-4" offset="100%" stop-color="#766cd3"/></linearGradient><linearGradient id="eAFYybTv4zo62-fill" x1="959.54" y1="536.932" x2="1017.81" y2="536.932" spreadMethod="pad" gradientUnits="userSpaceOnUse" gradientTransform="translate(0 0)"><stop id="eAFYybTv4zo62-fill-0" offset="0%" stop-color="#f38c96"/><stop id="eAFYybTv4zo62-fill-1" offset="100%" stop-color="#ed5391"/></linearGradient><linearGradient id="eAFYybTv4zo69-fill" x1="394.167" y1="384.409" x2="486.21" y2="309.432" spreadMethod="pad" gradientUnits="userSpaceOnUse" gradientTransform="translate(0 0)"><stop id="eAFYybTv4zo69-fill-0" offset="0%" stop-color="#b2ddef"/><stop id="eAFYybTv4zo69-fill-1" offset="100%" stop-color="#29a7df"/></linearGradient><linearGradient id="eAFYybTv4zo71-fill" x1="402.665" y1="352.129" x2="422.825" y2="335.707" spreadMethod="pad" gradientUnits="userSpaceOnUse" gradientTransform="translate(0 0)"><stop id="eAFYybTv4zo71-fill-0" offset="0%" stop-color="#f38c96"/><stop id="eAFYybTv4zo71-fill-1" offset="100%" stop-color="#ed5391"/></linearGradient><linearGradient id="eAFYybTv4zo72-fill" x1="429.563" y1="375.045" x2="449.722" y2="358.623" spreadMethod="pad" gradientUnits="userSpaceOnUse" gradientTransform="translate(0 0)"><stop id="eAFYybTv4zo72-fill-0" offset="0%" stop-color="#75c0df"/><stop id="eAFYybTv4zo72-fill-1" offset="29.2%" stop-color="#759cda"/><stop id="eAFYybTv4zo72-fill-2" offset="56.51%" stop-color="#7681d6"/><stop id="eAFYybTv4zo72-fill-3" offset="80.92%" stop-color="#7672d4"/><stop id="eAFYybTv4zo72-fill-4" offset="100%" stop-color="#766cd3"/></linearGradient><linearGradient id="eAFYybTv4zo75-fill" x1="721.503" y1="369.72" x2="784.49" y2="313.218" spreadMethod="pad" gradientUnits="userSpaceOnUse" gradientTransform="translate(0 0)"><stop id="eAFYybTv4zo75-fill-0" offset="0%" stop-color="#f38c96"/><stop id="eAFYybTv4zo75-fill-1" offset="100%" stop-color="#ed5391"/></linearGradient><linearGradient id="eAFYybTv4zo76-fill" x1="755.77" y1="295.852" x2="779.168" y2="274.864" spreadMethod="pad" gradientUnits="userSpaceOnUse" gradientTransform="translate(0 0)"><stop id="eAFYybTv4zo76-fill-0" offset="0%" stop-color="#b2ddef"/><stop id="eAFYybTv4zo76-fill-1" offset="100%" stop-color="#29a7df"/></linearGradient><linearGradient id="eAFYybTv4zo77-fill" x1="760.005" y1="268.151" x2="785.133" y2="245.611" spreadMethod="pad" gradientUnits="userSpaceOnUse" gradientTransform="translate(0 0)"><stop id="eAFYybTv4zo77-fill-0" offset="0%" stop-color="#75c0df"/><stop id="eAFYybTv4zo77-fill-1" offset="29.2%" stop-color="#759cda"/><stop id="eAFYybTv4zo77-fill-2" offset="56.51%" stop-color="#7681d6"/><stop id="eAFYybTv4zo77-fill-3" offset="80.92%" stop-color="#7672d4"/><stop id="eAFYybTv4zo77-fill-4" offset="100%" stop-color="#766cd3"/></linearGradient><linearGradient id="eAFYybTv4zo80-fill" x1="666.47" y1="408.603" x2="729.576" y2="406.194" spreadMethod="pad" gradientUnits="userSpaceOnUse" gradientTransform="translate(0 0)"><stop id="eAFYybTv4zo80-fill-0" offset="0%" stop-color="#75c0df"/><stop id="eAFYybTv4zo80-fill-1" offset="29.2%" stop-color="#759cda"/><stop id="eAFYybTv4zo80-fill-2" offset="56.51%" stop-color="#7681d6"/><stop id="eAFYybTv4zo80-fill-3" offset="80.92%" stop-color="#7672d4"/><stop id="eAFYybTv4zo80-fill-4" offset="100%" stop-color="#766cd3"/></linearGradient><linearGradient id="eAFYybTv4zo81-fill" x1="674.912" y1="408.386" x2="721.142" y2="406.621" spreadMethod="pad" gradientUnits="userSpaceOnUse" gradientTransform="translate(0 0)"><stop id="eAFYybTv4zo81-fill-0" offset="0%" stop-color="#b2ddef"/><stop id="eAFYybTv4zo81-fill-1" offset="100%" stop-color="#29a7df"/></linearGradient><linearGradient id="eAFYybTv4zo82-fill" x1="724.173" y1="440.957" x2="756.966" y2="439.706" spreadMethod="pad" gradientUnits="userSpaceOnUse" gradientTransform="translate(0 0)"><stop id="eAFYybTv4zo82-fill-0" offset="0%" stop-color="#f38c96"/><stop id="eAFYybTv4zo82-fill-1" offset="100%" stop-color="#ed5391"/></linearGradient><linearGradient id="eAFYybTv4zo91-fill" x1="629.755" y1="353.818" x2="666.354" y2="375.69" spreadMethod="pad" gradientUnits="userSpaceOnUse" gradientTransform="translate(0 0)"><stop id="eAFYybTv4zo91-fill-0" offset="0%" stop-color="#f38c96"/><stop id="eAFYybTv4zo91-fill-1" offset="100%" stop-color="#ed5391"/></linearGradient><linearGradient id="eAFYybTv4zo95-fill" x1="414.272" y1="235.046" x2="477.264" y2="184.426" spreadMethod="pad" gradientUnits="userSpaceOnUse" gradientTransform="translate(0 0)"><stop id="eAFYybTv4zo95-fill-0" offset="0%" stop-color="#75c0df"/><stop id="eAFYybTv4zo95-fill-1" offset="29.2%" stop-color="#759cda"/><stop id="eAFYybTv4zo95-fill-2" offset="56.51%" stop-color="#7681d6"/><stop id="eAFYybTv4zo95-fill-3" offset="80.92%" stop-color="#7672d4"/><stop id="eAFYybTv4zo95-fill-4" offset="100%" stop-color="#766cd3"/></linearGradient><linearGradient id="eAFYybTv4zo96-fill" x1="437.131" y1="198.988" x2="449.019" y2="189.434" spreadMethod="pad" gradientUnits="userSpaceOnUse" gradientTransform="translate(0 0)"><stop id="eAFYybTv4zo96-fill-0" offset="0%" stop-color="#f38c96"/><stop id="eAFYybTv4zo96-fill-1" offset="100%" stop-color="#ed5391"/></linearGradient><linearGradient id="eAFYybTv4zo99-fill" x1="544.744" y1="435.572" x2="584.488" y2="379.806" spreadMethod="pad" gradientUnits="userSpaceOnUse" gradientTransform="translate(0 0)"><stop id="eAFYybTv4zo99-fill-0" offset="0%" stop-color="#f38c96"/><stop id="eAFYybTv4zo99-fill-1" offset="100%" stop-color="#ed5391"/></linearGradient><linearGradient id="eAFYybTv4zo107-fill" x1="594.79" y1="203.483" x2="667.201" y2="242.646" spreadMethod="pad" gradientUnits="userSpaceOnUse" gradientTransform="translate(0 0)"><stop id="eAFYybTv4zo107-fill-0" offset="0%" stop-color="#75c0df"/><stop id="eAFYybTv4zo107-fill-1" offset="29.2%" stop-color="#759cda"/><stop id="eAFYybTv4zo107-fill-2" offset="56.51%" stop-color="#7681d6"/><stop id="eAFYybTv4zo107-fill-3" offset="80.92%" stop-color="#7672d4"/><stop id="eAFYybTv4zo107-fill-4" offset="100%" stop-color="#766cd3"/></linearGradient><linearGradient id="eAFYybTv4zo110-fill" x1="682.73" y1="265.736" x2="715.48" y2="222.57" spreadMethod="pad" gradientUnits="userSpaceOnUse" gradientTransform="translate(0 0)"><stop id="eAFYybTv4zo110-fill-0" offset="0%" stop-color="#f38c96"/><stop id="eAFYybTv4zo110-fill-1" offset="100%" stop-color="#ed5391"/></linearGradient><linearGradient id="eAFYybTv4zo112-fill" x1="682.025" y1="330.194" x2="719.822" y2="280.377" spreadMethod="pad" gradientUnits="userSpaceOnUse" gradientTransform="translate(0 0)"><stop id="eAFYybTv4zo112-fill-0" offset="0%" stop-color="#75c0df"/><stop id="eAFYybTv4zo112-fill-1" offset="29.2%" stop-color="#759cda"/><stop id="eAFYybTv4zo112-fill-2" offset="56.51%" stop-color="#7681d6"/><stop id="eAFYybTv4zo112-fill-3" offset="80.92%" stop-color="#7672d4"/><stop id="eAFYybTv4zo112-fill-4" offset="100%" stop-color="#766cd3"/></linearGradient><linearGradient id="eAFYybTv4zo118-fill" x1="484.213" y1="261.103" x2="564.679" y2="261.103" spreadMethod="pad" gradientUnits="userSpaceOnUse" gradientTransform="translate(0 0)"><stop id="eAFYybTv4zo118-fill-0" offset="0%" stop-color="#f38c96"/><stop id="eAFYybTv4zo118-fill-1" offset="100%" stop-color="#ed5391"/></linearGradient><linearGradient id="eAFYybTv4zo119-fill" x1="524.436" y1="244.593" x2="552.884" y2="244.593" spreadMethod="pad" gradientUnits="userSpaceOnUse" gradientTransform="translate(0 0)"><stop id="eAFYybTv4zo119-fill-0" offset="0%" stop-color="#b2ddef"/><stop id="eAFYybTv4zo119-fill-1" offset="100%" stop-color="#29a7df"/></linearGradient><linearGradient id="eAFYybTv4zo120-fill" x1="524.436" y1="261.103" x2="564.679" y2="261.103" spreadMethod="pad" gradientUnits="userSpaceOnUse" gradientTransform="translate(0 0)"><stop id="eAFYybTv4zo120-fill-0" offset="0%" stop-color="#75c0df"/><stop id="eAFYybTv4zo120-fill-1" offset="29.2%" stop-color="#759cda"/><stop id="eAFYybTv4zo120-fill-2" offset="56.51%" stop-color="#7681d6"/><stop id="eAFYybTv4zo120-fill-3" offset="80.92%" stop-color="#7672d4"/><stop id="eAFYybTv4zo120-fill-4" offset="100%" stop-color="#766cd3"/></linearGradient></defs><rect width="2556" height="1382" rx="0" ry="0" fill="#f5f5f5"/><g transform="translate(0 15.995371)"><rect width="2556" height="1382" rx="0" ry="0" fill="#fff"/><g transform="matrix(1.49406 0 0 1.557508 122.618783-170.715351)" clip-path="url(#eAFYybTv4zo152)"><g><g><path d="M1269,98h-1053v864h1053v-864Z" fill="#fff"/></g><g transform="matrix(1 0 0 1.047404 0-24.212209)"><g><g><path d="M991.12,443.548c42.55,0,77.05-28.305,77.05-63.22c0-34.916-34.5-63.221-77.05-63.221-42.554,0-77.051,28.305-77.051,63.221c0,34.915,34.497,63.22,77.051,63.22Z" opacity="0.5" fill="#fcdc0c"/><path d="M939.723,300.625c26.602,0,48.168-17.695,48.168-39.523c0-21.827-21.566-39.522-48.168-39.522-26.603,0-48.169,17.695-48.169,39.522c0,21.828,21.566,39.523,48.169,39.523Z" opacity="0.5" fill="#ffe607"/><path d="M1109.82,435.181c13.3,0,24.09-8.847,24.09-19.761s-10.79-19.762-24.09-19.762-24.08,8.848-24.08,19.762s10.78,19.761,24.08,19.761Z" fill="#ffd608"/><path d="M395.162,441.323c10.544,0,19.093-7.014,19.093-15.667c0-8.652-8.549-15.666-19.093-15.666-10.545,0-19.093,7.014-19.093,15.666c0,8.653,8.548,15.667,19.093,15.667Z" fill="#ffe608"/><path d="M1109.82,790.397c13.3,0,24.09-8.847,24.09-19.761s-10.79-19.761-24.09-19.761-24.08,8.847-24.08,19.761s10.78,19.761,24.08,19.761Z" fill="#f2d40f"/><path d="M1070.85,281.127c8.22,0,14.89-5.469,14.89-12.216c0-6.746-6.67-12.215-14.89-12.215s-14.89,5.469-14.89,12.215c0,6.747,6.67,12.216,14.89,12.216Z" fill="#f9d909"/><path d="M374.91,740.137c8.222,0,14.888-5.469,14.888-12.215c0-6.747-6.666-12.216-14.888-12.216s-14.887,5.469-14.887,12.216c0,6.746,6.665,12.215,14.887,12.215Z" fill="#f0fc08"/><path d="M400.153,279.863c0,6.746-6.666,12.216-14.887,12.216-8.222,0-14.888-5.47-14.888-12.216s6.666-12.215,14.888-12.215c8.221,0,14.887,5.469,14.887,12.215Z" fill="#fcf80c"/><path d="M1098.64,322.547c0,3.373-3.33,6.108-7.45,6.108-4.11,0-7.44-2.734-7.44-6.108c0-3.373,3.33-6.109,7.44-6.109c4.12.002,7.45,2.736,7.45,6.109Z" fill="#faf60a"/><path d="M363.169,381.876c0,3.373-3.331,6.108-7.442,6.108s-7.445-2.735-7.445-6.108s3.332-6.109,7.445-6.109c4.111.002,7.442,2.736,7.442,6.109Z" fill="#f9fd10"/><path d="M1161.32,727.922c0,3.373-3.34,6.106-7.45,6.106s-7.44-2.733-7.44-6.106s3.33-6.109,7.44-6.109c4.11.002,7.45,2.736,7.45,6.109Z" fill="#e1f316"/><path d="M546.103,182.624c0,3.373-3.332,6.108-7.443,6.108s-7.444-2.735-7.444-6.108s3.331-6.109,7.444-6.109c4.111.002,7.443,2.736,7.443,6.109Z" fill="#ffdf10"/></g><path d="M736.824,860.425c214.586,0,388.546-14.48,388.546-32.341c0-17.862-173.96-32.342-388.546-32.342s-388.542,14.48-388.542,32.342c0,17.861,173.956,32.341,388.542,32.341Z" fill="url(#eAFYybTv4zo24-fill)"/><path d="M524.337,402.173c-53.564,31.132-102.052,70.794-131.357,120.504-15.985,27.112-26.07,57.62-22.625,87.903c5.733,50.366,45.205,100.558,100.637,116.858c69.45,20.421,158.66,9.051,196.633-.626c104.268-26.571,217.424-36.322,321.252-8.501c23.663,6.341,47.523,14.686,72.243,13.274c42.47-2.424,76.94-34.541,87.8-70.107c10.87-35.565,2.37-73.483-11.34-108.306-21.66-54.993-56.62-106.42-104.37-147.301-49.415-42.303-198.212-119.991-393.974-55.631-40.477,13.307-78.96,31.045-114.899,51.933Z" fill="url(#eAFYybTv4zo25-fill)"/><g><g><path id="eAFYybTv4zo28" d="M446.455,661.831c-.113-12.214.337-24.89-5.677-36.064-5.598-10.4-16.172-18.315-25.778-26.51-20.226-17.255-37.51-37.498-45.424-60.539-9.008-26.226-5.019-55.293,10.869-79.219c36.023,22.416,72.28,49.509,81.578,85.811c6.202,24.215-.554,49.198-3.629,73.812-4.749,38.01-.568,76.757,12.245,113.493-2.618,2.594-8.201,1.337-10.4-1.507-4.825-6.243-6.893-21.984-9.041-29.492-3.721-12.998-4.62-26.474-4.743-39.785Z" transform="matrix(.999945-.010483 0.010483 0.999945-6.233036 4.412074)" fill="url(#eAFYybTv4zo28-fill)"/><path id="eAFYybTv4zo29" d="M463.331,692.002c-.571-5.615-1.127-11.367.684-16.802c1.693-5.085,5.356-9.573,7.586-14.515c6.638-14.709-.082-31.133,1.967-46.728c1.944-14.794,11.629-28.034,21.083-40.729c10.882-14.614,21.761-29.228,32.641-43.841c9.881,12.42,19.845,24.967,26.178,38.861c10.123,22.206,10.222,47.611-1.133,69.412-11.358,21.8-34.391,39.566-62.073,46.364-5.313,1.304-11.418,2.621-13.962,6.666-1.557,2.476-1.357,5.417-1.119,8.196c1.978,22.984,7.616,48.059,5.583,70.919-18.583,5.435-11.496-17.309-12.105-25.317-1.331-17.506-3.555-35.002-5.33-52.486Z" transform="matrix(.997653 0.06848-.06848 0.997653 45.714257-33.526928)" fill="url(#eAFYybTv4zo29-fill)"/><path id="eAFYybTv4zo30" d="M468.44,715.183c-2.559-9.311-6.428-19.013-15.382-25.105-4.136-2.814-9.117-4.67-13.42-7.312-21.268-13.054-20.487-40.669-39.534-55.856-16.814-13.41-45.331-14.039-60.016-29.038c2.053,24.046,4.363,48.865,17.909,70.254s41.465,38.59,70.57,35.317c3.576-.403,7.354-1.08,10.686.059c2.919.998,4.917,3.214,6.632,5.394c13.529,17.223,18.356,38.899,13.124,58.934-.503,1.928,13.316,1.548,15.38-.363c1.673-1.55-.32-10.384-.423-12.319-.72-13.527-1.883-26.708-5.526-39.965Z" transform="matrix(.99936 0.035784-.035784 0.99936 24.719006-14.146848)" fill="#3ac3e3"/></g><path d="M514.69,822.212h-93.241l-10.21-56.293h113.661l-10.21,56.293Z" fill="url(#eAFYybTv4zo31-fill)"/><path d="M530.344,750.228h-124.549v15.691h124.549v-15.691Z" fill="#8c165a"/></g><g><path d="M928.927,820.299h8.062L905.317,655.81h-18.375l41.985,164.489Z" fill="#2e3092"/><path d="M778.363,820.299h-8.062L801.973,655.81h18.375L778.363,820.299Z" fill="#2e3092"/><path d="M863.121,674.165c43.894,0,79.476-9.25,79.476-20.661c0-11.412-35.582-20.662-79.476-20.662-43.893,0-79.476,9.25-79.476,20.662c0,11.411,35.583,20.661,79.476,20.661Z" fill="url(#eAFYybTv4zo36-fill)"/></g><g><g><path d="M778.359,824.888c-15.062,7.497-36.194,12.995-53.747,14.21-2.755.19-5.682.288-8.113-.792-2.43-1.08-4.001-3.774-2.546-5.7c5.309-3.251,17.017-6.658,24.52-11.308c4.964-3.076,9.732-6.672,12.186-11.362c1.703-3.257,2.23-6.936,4.54-9.932c7.392-9.589,23.162.003,23.162.003-3.892,6.38,10.254,19.777-.002,24.881Z" fill="#1e1e1f"/><path d="M917.172,620.081c-6.106,18.201-22.052,23.834-38.542,30.091-20.989,7.968-38.239,17.007-51.882,24.958-13.665,7.967-23.747,14.831-30.33,18.398-.152.089-.303.178-.434.248-14.382,7.666-17.621,106.229-17.621,106.229-6.714,1.586-23.225,5.188-26.289.017-3.041-5.116-5.779-108.136-3.26-117.656.021-.07.044-.143.065-.214.847-2.514,9.82-11.391,22.747-22.336c2.934-2.495,6.105-5.117,9.429-7.809c23.138-18.664,53.751-40.146,74.672-47.293c4.279-1.48,8.169-2.337,11.492-2.442c7.521-.249,51.93,11.873,49.953,17.809Z" fill="url(#eAFYybTv4zo40-fill)"/><path d="M848.463,684.991c0,0-2.822,11.771-8.956,14.911-2.216,1.13-20.342-1.666-43.087-6.374-14.953-3.081-31.912-7.006-47.613-11.16-26.337-6.967-49.198-14.605-53.351-20.174-6.533-10.987,2.73-23.218,25.359-31.908c19.524-7.503,72.317-25.84,72.317-25.84c10.802-5.818,43.809-6.088,62.591.268-20.902,7.14-51.532,28.634-74.673,47.297-8.118,1.703-14.417,3.158-17.286,4.249c1.959,1.187,4.642,2.374,7.862,3.56c13.927,5.168,37.674,10.336,55.125,15.313c11.892,3.389,20.828,6.701,21.712,9.858Z" fill="url(#eAFYybTv4zo41-fill)"/><path d="M836.303,696.379c-.596,3.997,1.108,4.054.697,8.066-.667,6.516-5.239,12.312-7.122,18.668-.672,2.267-6.032,15.676,4.469,10.964c13.548-6.083,43.006-33.921,38.232-43.259-2.369-4.634-15.748-7.252-27.14-7.252c0,0-7.402,1.178-9.136,12.813Z" fill="#26272c"/></g><g><path d="M786.536,544.085c-4.306,3.233-10.409,4.202-16.203,4.792-5.794.587-11.842.983-16.873,3.409-5.034,2.428-8.652,7.643-6.407,12.065c1.984,3.907,7.51,5.649,12.569,6.475c15.152,2.479,30.798.475,46.056-1.533c3.666-.482,7.487-1.014,10.49-2.806c4.14-2.47,5.878-6.791,7.097-10.871c3.022-10.112,4.366-20.56,3.98-30.966-.158-4.291-.716-8.82-3.797-12.293-3.883-4.375-29.816-5.213-30.318,1.011-.901,11.197-.8,26.371-6.594,30.717Z" fill="#ffc8b6"/><path d="M802.464,481.628c-4.997,8.353-8.656,22.452-9.332,31.74c7.277,1.249,17.183,4.486,24.58,5.098c7.396.611,15.536-.597,20.619-5.048c4.383-3.838,5.733-9.345,6.394-14.577c1.083-8.563,4.6-34.026-11.149-35.753-11.619-1.275-26.792,11.319-31.112,18.54Z" fill="#60c4f6"/><path d="M807.289,513.802c8.009,39.932,11.566,62.431-14.157,90.645c49.359-6.699,77.322,23.289,124.029,15.632c11.663-29.988,4.473-67.252,5.547-111.053.308-12.506-9.866-35.196-20.028-44.521-14.017-12.863-52.814-7.966-70.862-2.82-28.509,8.132-28.81,30.767-24.529,52.117Z" fill="#60c4f6"/><path id="eAFYybTv4zo47" d="M942.593,540.007c.383,18.161-35.8,21.263-44.485,21.249-16.107-.028-34.627,1.512-50.544-.513-5.442-.693-30.636-4.291-33.826-7.975-8.452-9.765,12.844-10.876,15.057-11.031c12.698-.892,14.446,2.007,22.657,4.014c13.944,3.406,61.289-4.913,61.097-6.249-1.106-7.707-7.721-15.918-10.553-23.321-.973-2.545,36.933-12.758,37.72-6.965.674,4.952,2.728,23.715,2.877,30.791Z" transform="translate(.282476 3.830761)" fill="#ffc8b6"/><path d="M939.716,509.214c.529,2.929-36.282,11.778-37.72,6.965-3.109-10.399-27.616-61.585-9.262-57.445c27.963,6.304,42.701,26.722,46.982,50.48Z" fill="#60c4f6"/></g><g id="eAFYybTv4zo49" transform="matrix(.999993 0.003782-.003782 0.999993 1.613901-3.188827)"><path d="M871.143,443.049c-.337-1.925-6.859-13.301-18.234-13.297-10.224.005-18.988,9.006-16.178,17.072c0,0,.328,17.439,1.247,25.44c1.811,15.778,25.916,13.192,38.845-3.85c1.666-2.194-3.896-15.179-5.68-25.365Z" fill="#f2b5a5"/><path d="M811.278,427.011c.84,11.759,4.73,25.381,17.899,30.069c10.591,3.771,31.607-.973,41.966-14.029c6.299-7.941,9.883-14.834,11.705-24.189c1.318-6.77-1.16-34.731-35.987-36.767-35.651-2.085-38.372,5.901-35.583,44.916Z" fill="#ffc8b6"/><path id="eAFYybTv4zo52" d="M803.854,373.177c-6.185,2.272-10.783,8.459-7.912,13.496c3.043,5.339,11.722,6.155,18.903,6.226c9.566.093,19.131.188,28.695.281c5.09.051,11.071.491,13.733,4.053c3.915,5.237,1.383,14.487,7.493,18.038.739-2.478,5.05-5.614,7.872-4.546c7.582,2.872,7.971,14.235-2.04,16.03.012,4.647.528,11.647.541,16.294c14.834-4.17,21.534-27.844,21.534-36.33c0-21.881-13.732-24.261-13.732-24.261.569-4.671-9.997-13.124-29.048-14.721-13.545-1.133-33.201.723-46.039,5.44Z" transform="matrix(.999546-.030125 0.030125 0.999546-11.82459 25.605479)" fill="#2e3092"/></g></g><g><path d="M1045.85,557.553h-572.311v15.951h572.311v-15.951Z" fill="#2e3092"/><path d="M475.093,829.355h-7.776l74.65-255.851h21.774L475.093,829.355Z" fill="#2e3092"/><path d="M1048.19,829.355h7.77L981.312,573.504h-21.772l88.65,255.851Z" fill="#2e3092"/></g><g><path d="M765.171,476.301c-.602-2.354-3.134-4.037-6.063-4.037h-128.047c-1.834,0-3.203,1.384-2.826,2.856l19.36,75.505h136.633l-19.057-74.324Z" fill="url(#eAFYybTv4zo58-fill)"/><path d="M844.028,550.625h-196.433v6.928h197.84v-5.773c.002-.638-.63-1.155-1.407-1.155Z" fill="url(#eAFYybTv4zo59-fill)"/><path d="M716.285,513.368c0,4.721-4.665,8.548-10.419,8.548-5.753,0-10.418-3.827-10.418-8.548s4.665-8.548,10.418-8.548c5.754,0,10.419,3.827,10.419,8.548Z" fill="#fff"/></g><g><path d="M1010.64,523.707c-3.42-1.604-7.14-1.557-10.749-.785v-4.173c0-1.348-1.331-2.44-2.974-2.44h-34.403c-1.643,0-2.974,1.092-2.974,2.44v36.364c0,1.348,1.331,2.44,2.974,2.44h34.401c1.643,0,2.974-1.092,2.974-2.44v-5.69c2.841.252,5.751.05,7.781-.406c6.83-1.537,10.2-6.064,10.14-11.695-.06-5.043-1.37-10.902-7.17-13.615Zm.01,14.271c-.32,4.023-3.72,5.303-8.1,5.279-.87-.005-1.76-.126-2.661-.276v-14.571c2.951-.807,6.101-1.075,8.301.679c2.6,2.074,2.67,6.155,2.46,8.889Z" fill="url(#eAFYybTv4zo62-fill)"/><g id="eAFYybTv4zo63" transform="translate(-.002869 0.000012)"><path d="M967.023,503.845c.558-.867,1.482-1.533,2.226-2.3c2.624-2.704,2.757-6.848.305-9.66c2.243.69,4.09,2.2,4.937,4.039.846,1.838.68,3.972-.447,5.707-.547.845-1.303,1.588-1.87,2.423-1.48,2.179-1.497,4.875-.208,7.116-3.732-.249-6.738-4.534-4.943-7.325Z" fill="#fff"/><path d="M977.203,503.845c.558-.867,1.483-1.533,2.228-2.3c2.624-2.704,2.755-6.848.306-9.66c2.243.69,4.09,2.2,4.936,4.039.847,1.838.68,3.972-.446,5.707-.548.845-1.304,1.588-1.87,2.423-1.481,2.179-1.498,4.875-.209,7.116-3.732-.249-6.739-4.534-4.945-7.325Z" fill="#fff"/><path d="M987.384,503.845c.558-.867,1.482-1.533,2.226-2.3c2.624-2.704,2.756-6.848.305-9.66c2.243.69,4.09,2.2,4.937,4.039.846,1.838.68,3.972-.447,5.707-.548.845-1.304,1.588-1.87,2.423-1.481,2.179-1.497,4.875-.209,7.116-3.729-.249-6.737-4.534-4.942-7.325Z" fill="#fff"/></g></g><g><g><path d="M381.399,367.155c7.177,14.494,24.493,25.975,43.558,26.138c8.66.074,17.204-2.063,25.858-1.792c16.856.527,33.89,8.569,49.329,2.993c23.658-8.545,20.529-35.773,13.701-48.407-24.733-45.759-68.23-45.368-83.515-43.255-39.604,5.476-65.046,31.781-48.931,64.323Z" fill="url(#eAFYybTv4zo69-fill)"/><path d="M457.055,322.298c4.279,5.251,2.559,12.355-3.844,15.866-6.4,3.512-15.057,2.1-19.337-3.152-4.279-5.251-2.559-12.355,3.844-15.866c6.4-3.511,15.057-2.101,19.337,3.152Z" fill="#0085e6"/><path d="M425.846,339.415c4.279,5.252,2.559,12.356-3.841,15.867s-15.058,2.099-19.338-3.154c-4.279-5.253-2.558-12.355,3.842-15.866c6.4-3.51,15.058-2.098,19.337,3.153Z" fill="url(#eAFYybTv4zo71-fill)"/><path d="M452.744,362.33c4.279,5.252,2.559,12.356-3.844,15.867-6.402,3.511-15.057,2.099-19.337-3.152-4.279-5.251-2.559-12.355,3.842-15.866c6.402-3.512,15.06-2.1,19.339,3.151Z" fill="url(#eAFYybTv4zo72-fill)"/><path d="M487.956,346.524c4.28,5.252,2.559,12.356-3.841,15.867s-15.058,2.099-19.337-3.154c-4.28-5.251-2.559-12.355,3.843-15.866c6.398-3.51,15.056-2.098,19.335,3.153Z" fill="#fff"/></g><g><path d="M748.921,398.43c-2.458-.308-4.168-2.169-3.85-4.192l14.507-94.145l14.796,1.847-20.257,93.426c-.432,2.01-2.738,3.372-5.196,3.064Z" fill="url(#eAFYybTv4zo75-fill)"/><path d="M779.353,275.07l-14.797-1.846-4.981,26.871l14.797,1.845l4.981-26.87Z" fill="url(#eAFYybTv4zo76-fill)"/><path d="M764.556,273.224c0,0-7.421-9.257,3.471-18.728s10.568-16.176,10.568-16.176s18.876,20.683.76,36.75l-14.799-1.846Z" fill="url(#eAFYybTv4zo77-fill)"/></g><g id="eAFYybTv4zo78" transform="translate(-6.496979-.000001)"><path d="M716.394,417.069l-5.926,5.177l15.237,11.743l5.926-5.177-15.237-11.743Z" fill="#1e2278"/><path d="M698.038,433.705c17.443,0,31.584-11.602,31.584-25.914c0-14.313-14.141-25.915-31.584-25.915s-31.584,11.602-31.584,25.915c0,14.312,14.141,25.914,31.584,25.914Z" fill="url(#eAFYybTv4zo80-fill)"/><path d="M713.877,393.953c9.315,7.178,9.774,19.193,1.024,26.836-8.748,7.643-23.391,8.019-32.706.839-9.315-7.178-9.774-19.192-1.024-26.835c8.751-7.642,23.394-8.018,32.706-.84Z" fill="url(#eAFYybTv4zo81-fill)"/><path d="M732.918,427.701l-8.481,7.408c-.63.549-.596,1.413.074,1.93l19.183,14.785c3.102,2.389,8.062,2.626,11.132.21c3.275-2.576,3.214-6.843-.05-9.358l-19.508-15.034c-.668-.518-1.721-.491-2.35.059Z" fill="url(#eAFYybTv4zo82-fill)"/><g><path d="M687.034,400.616c6.664,5.231,13.371,10.408,20.329,15.372.51.363,1.193-.231.717-.625-6.476-5.388-13.192-10.557-19.972-15.685-.741-.565-1.805.363-1.074.938Z" fill="#fff"/></g><g><path d="M697.773,396.381c4.783,3.691,9.449,7.553,14.502,10.997.417.285.947-.18.575-.503-4.505-3.921-9.496-7.501-14.285-11.187-.544-.42-1.338.273-.792.693Z" fill="#fff"/></g><g><path d="M684.419,412.207c3.226,2.532,6.334,5.371,9.875,7.6.699.441,1.514-.271.935-.817-2.936-2.762-6.582-5.129-9.863-7.612-.655-.494-1.592.323-.947.829Z" fill="#fff"/></g></g><g><path d="M638.554,342.799l8.668-14.503-5.738-2.309c.566-2.461.751-4.926.572-7.347l6.053-1.713-6.368-15.282-6.074,1.704c-1.655-2.02-3.641-3.878-5.916-5.513l2.824-4.726-17.675-7.112-2.825,4.726c-2.967-.474-5.972-.626-8.933-.462l-2.077-4.983-18.625,5.225l2.055,4.977c-2.443,1.367-4.705,2.996-6.728,4.87l-5.76-2.318-8.669,14.503l5.76,2.318c-.566,2.459-.752,4.926-.573,7.347l-6.044,1.695l6.369,15.283l6.044-1.695c1.666,2.004,3.652,3.86,5.935,5.52l-2.814,4.709l17.676,7.113l2.813-4.709c2.997.465,6.002.617,8.953.47l2.066,4.959l18.625-5.225-2.066-4.96c2.443-1.366,4.705-2.996,6.729-4.869l5.743,2.307Zm-39.382-12.141c-6.882-2.77-9.734-9.609-6.358-15.258c3.384-5.665,11.711-7.987,18.596-5.217c6.882,2.77,9.744,9.592,6.358,15.258-3.376,5.647-11.712,7.985-18.596,5.217Z" fill="#2e3092"/><path d="M667.486,373.794l4.615-7.721-3.056-1.228c.301-1.31.4-2.623.305-3.911l3.222-.912-3.39-8.136-3.233.908c-.882-1.077-1.94-2.065-3.148-2.935l1.503-2.516-9.409-3.786-1.504,2.516c-1.58-.252-3.18-.333-4.755-.245l-1.106-2.654-9.915,2.782l1.095,2.649c-1.299.727-2.504,1.595-3.582,2.592l-3.067-1.234-4.614,7.721l3.066,1.234c-.301,1.309-.4,2.623-.305,3.91l-3.218.902l3.391,8.136l3.218-.903c.886,1.067,1.944,2.055,3.159,2.94l-1.5,2.507l9.41,3.786l1.499-2.507c1.597.247,3.195.328,4.766.25l1.1,2.641l9.915-2.782-1.1-2.641c1.3-.727,2.504-1.595,3.583-2.592l3.055,1.229Zm-22.723-3.544c-5.636-2.267-7.965-7.859-5.196-12.492c2.763-4.624,9.578-6.535,15.212-4.268c5.646,2.272,7.975,7.862,5.212,12.486-2.769,4.635-9.582,6.546-15.228,4.274Z" fill="url(#eAFYybTv4zo91-fill)"/></g><g id="eAFYybTv4zo92" transform="translate(.000001 3.464005)"><path d="M467.836,161.101l-85.221,46.106l40.504,50.404l85.221-46.106-40.504-50.404Z" fill="#fff"/><path d="M465.247,169.451l-72.259,39.093l32.721,40.717l72.259-39.093-32.721-40.717Z" fill="#8bdefc"/><path d="M410.858,230.797l13.706-21.716l25.718.387l15.178-15.36l21.298,2.134l11.193,13.929-72.257,39.091-14.836-18.465Z" fill="url(#eAFYybTv4zo95-fill)"/><path d="M450.768,191.609c2.483,3.09,1.443,7.246-2.322,9.283-3.766,2.037-8.833,1.184-11.316-1.906s-1.443-7.245,2.323-9.283c3.765-2.037,8.832-1.183,11.315,1.906Z" fill="url(#eAFYybTv4zo96-fill)"/></g><g><path d="M585.841,380.747L535.1,428.678l58.418,41.634l50.741-47.931-58.418-41.634Z" fill="#fff"/><path d="M605.151,394.533l-50.74,47.93-19.335-13.781l50.74-47.93l19.335,13.781Z" fill="url(#eAFYybTv4zo99-fill)"/><g><path d="M594.137,435.501c2.095-4.239.956-9.133-5.575-10.833-6.171-1.605-14.245,6.456-14.588,10.311l3.698,1.642c.208-2.095,4.839-8.364,8.784-6.987c6.248,2.181,2.833,7.747.524,10.353l4.316,3.089c3.087-3.193,8.569-7.962,13.097-3.796c2.436,2.243-1.723,8.58-9.151,10.491l4.583,3.112c13.057-6.8,13.661-14.389,8.015-18.415-4.58-3.265-8.803-2.333-13.703,1.033Z" fill="#2e3092"/><path d="M597.352,411.046l-3.201,3.028c-.014.084-.992,5.826-.992,5.826l4.132,1.201c0,0,.577-2.83.605-3.644c3.523,2.63,14.784,11.016,23.134,16.869l3.38-3.32c-7.459-5.503-22.502-16.53-27.058-19.96Z" fill="#2e3092"/></g><g><path d="M539.699,409.565c-.988.933-.866,2.347.269,3.156l12.312,8.774c1.137.811,2.858.711,3.845-.221.988-.933.866-2.345-.269-3.155l-12.312-8.775c-1.137-.81-2.858-.712-3.845.221Z" fill="#60c4f6"/><path d="M551.547,398.373c-.988.933-.866,2.347.269,3.155l12.312,8.775c1.137.811,2.86.71,3.846-.221.987-.933.865-2.345-.27-3.155l-12.312-8.775c-1.137-.811-2.86-.71-3.845.221Z" fill="#60c4f6"/><path d="M563.393,387.183c-.988.933-.865,2.344.27,3.155l12.311,8.775c1.138.81,2.858.71,3.846-.222.988-.933.866-2.344-.27-3.155l-12.311-8.775c-1.135-.81-2.858-.712-3.846.222Z" fill="#60c4f6"/></g></g><path id="eAFYybTv4zo107" d="M651.236,185.639c-21.559-7.85-46.879.155-56.444,17.843-9.566,17.688.189,38.466,21.746,46.314c21.559,7.85,46.88-.155,56.447-17.843c9.564-17.686-.189-38.464-21.749-46.314Zm-32.301,59.727c-2.928-1.067-4.433-6.306-3.083-14.099l17.89,6.514c-6.135,6.05-11.878,8.649-14.807,7.585Zm-1.936-18.988c.946-3.254,2.332-6.817,4.229-10.615l22.918,8.345c-2.159,3.703-4.448,6.936-6.754,9.694l-20.393-7.424Zm-17.867-18.66l16.692,6.077c-1.739,3.489-3.188,7.08-4.269,10.6l-14.445-5.26c-.227-3.793.413-7.661,2.022-11.417Zm49.706-17.645c2.927,1.066,4.433,6.305,3.081,14.097l-17.891-6.515c6.137-6.048,11.882-8.648,14.81-7.582Zm1.933,18.987c-.946,3.254-2.331,6.817-4.229,10.615l-22.917-8.344c2.158-3.703,4.448-6.936,6.756-9.694l20.39,7.423Zm-32.55.301l-16.692-6.077c2.316-3.5,5.38-6.484,8.961-8.893l14.445,5.26c-2.456,3.021-4.728,6.311-6.714,9.71Zm31.329,16.715l16.694,6.079c-2.317,3.499-5.381,6.483-8.961,8.892l-14.449-5.26c2.457-3.022,4.73-6.312,6.716-9.711Zm2.398-4.434c1.74-3.489,3.189-7.08,4.269-10.6l14.449,5.26c.226,3.793-.414,7.661-2.023,11.417l-16.695-6.077Zm17.718-11.009l-12.181-4.436c.866-4.144,1.095-8.023.556-11.32c5.848,4.168,9.841,9.718,11.625,15.756ZM638.32,187.697c-3.342,1.884-6.692,4.626-9.858,7.933l-12.179-4.434c6.653-2.965,14.348-4.261,22.037-3.499Zm-40.214,37.109l12.179,4.434c-.865,4.144-1.095,8.023-.556,11.32-5.846-4.168-9.837-9.717-11.623-15.754Zm31.344,22.936c3.342-1.884,6.693-4.626,9.858-7.934l12.181,4.436c-6.653,2.964-14.348,4.258-22.039,3.498Z" fill="url(#eAFYybTv4zo107-fill)"/><g><g><path d="M705.891,281.158l-2.718.088-.636-13.333c-.289-6.029,5.456-11.127,12.802-11.362l12.646-.406c5.811-.187,10.354-4.218,10.126-8.986-.227-4.767-5.141-8.495-10.951-8.308l-11.118.358c-8.19.262-15.114-4.991-15.435-11.713l-.697-14.587l2.719-.089.697,14.588c.261,5.49,5.92,9.782,12.611,9.568l11.118-.358c7.312-.235,13.491,4.455,13.777,10.453s-5.427,11.07-12.739,11.305l-12.647.406c-5.848.188-10.418,4.244-10.189,9.042l.634,13.334Z" fill="url(#eAFYybTv4zo110-fill)"/></g><g><path d="M728.329,294.427l1.324,27.736c.502,10.487-9.428,19.321-22.209,19.732-12.782.411-23.55-7.759-24.051-18.246l-1.325-27.736c-.482-10.109,8.749-18.697,20.879-19.666.461-.038.897-.052,1.359-.066.461-.016.897-.029,1.36-.021c12.185.189,22.18,8.16,22.663,18.267Z" fill="url(#eAFYybTv4zo112-fill)"/></g><g><path d="M728.632,300.765l.107,2.231-46.26,1.486-.107-2.231l21.784-.7-1.209-25.304c.461-.038.897-.052,1.359-.066.461-.016.897-.029,1.36-.021l1.209,25.305l21.757-.7Z" fill="#60c4f6"/></g><g><path d="M704.994,290.719c-2.978.095-5.296,2.153-5.18,4.596l.713,14.965c.116,2.443,2.627,4.346,5.605,4.25c2.977-.095,5.296-2.154,5.18-4.598l-.714-14.962c-.118-2.444-2.626-4.346-5.604-4.251Z" fill="#fff"/></g></g><g><path d="M564.68,261.094c0,9.12-4.498,17.371-11.796,23.359-7.276,5.97-17.332,9.661-28.448,9.661-22.21,0-40.222-14.779-40.222-33.02c0-18.224,18.012-33.003,40.222-33.003c11.116,0,21.172,3.691,28.448,9.661c7.298,5.988,11.796,14.221,11.796,23.342Z" fill="url(#eAFYybTv4zo118-fill)"/><path d="M552.884,237.752l-28.448,23.342v-33.003c11.116,0,21.172,3.691,28.448,9.661Z" fill="url(#eAFYybTv4zo119-fill)"/><path d="M564.68,261.094c0,9.12-4.498,17.371-11.796,23.359l-28.448-23.359l28.448-23.342c7.298,5.988,11.796,14.221,11.796,23.342Z" fill="url(#eAFYybTv4zo120-fill)"/><path d="M552.884,284.453c-7.276,5.97-17.332,9.661-28.448,9.661-22.21,0-40.222-14.779-40.222-33.02h40.222l28.448,23.359Z" fill="#2e3092"/></g></g></g></g><g><g><g><g><path d="M763.779,903.526c-.91.766-1.691,1.609-2.333,2.511l-.98-.416c-.141-.515-.735-.87-1.388-.806-.697.068-1.196.586-1.114,1.158s.714.982,1.411.914c.137-.014.268-.045.386-.09l.952.405c-.529.957-.912,1.968-1.135,3.013l1.573.228c.484-2.256,1.79-4.332,3.774-6.001l-1.146-.916Z" fill="#122129"/><path d="M775.337,899.548c-.36,0-.718.011-1.074.03l-.156-1.082c.396-.258.623-.672.56-1.115-.097-.679-.847-1.164-1.674-1.085-.828.08-1.42.695-1.323,1.374.063.439.398.797.853.975l.154,1.078c-1.504.2-2.955.573-4.338,1.116l.688,1.182c1.967-.772,4.09-1.163,6.308-1.163c1.044,0,2.091.092,3.106.273l.339-1.28c-1.127-.201-2.285-.303-3.443-.303Z" fill="#122129"/><path d="M789.241,903.95c.697-.07,1.192-.59,1.107-1.162-.084-.572-.718-.978-1.415-.909-.651.066-1.127.526-1.116,1.053l-.876.627c-.881-.743-1.875-1.405-2.965-1.968l-.851,1.108c2.388,1.235,4.256,2.982,5.397,5.054l1.456-.541c-.529-.957-1.197-1.852-1.984-2.67l.846-.606c.129.022.264.027.401.014Z" fill="#122129"/><path d="M774.183,917.189c-.813.04-1.633.061-2.437.061-1.853,0-3.65-.105-5.219-.309-.821-.107-1.781-.268-2.674-.505c2.203,3.216,6.463,5.4,11.347,5.4c6.013,0,11.082-3.311,12.531-7.783-1.437.776-3.17,1.426-5.179,1.941-2.483.634-5.379,1.047-8.369,1.195Z" fill="#122129"/><path d="M775.337,902.168c-7.06,0-12.805,4.607-12.805,10.269c0,.737.097,1.468.289,2.18c1.417.834,5.699,1.537,11.263,1.263c6.063-.299,11.155-1.654,14.051-3.731-.011-.337-.044-.674-.095-1.006-.8-5.115-6.263-8.975-12.703-8.975Zm-4.549,11.258c-2.148,0-3.896-1.434-3.896-3.197c0-1.762,1.748-3.197,3.896-3.197s3.896,1.435,3.896,3.197c0,1.763-1.748,3.197-3.896,3.197Zm9.978-1.569c-1.579,0-2.864-1.054-2.864-2.35s1.285-2.352,2.864-2.352c1.58,0,2.866,1.054,2.866,2.352s-1.286,2.35-2.866,2.35Z" fill="#122129"/></g><path d="M809.039,905.394c-.621-.2-1.695-.534-2.91-.409-1.161.119-1.778.589-1.778,1.74v1.496h4.692v2.967h-4.692v9.426h-4.069v-9.426h-2.822v-2.967h2.822v-1.534c0-2.903,1.887-4.809,5.409-4.809c1.354,0,2.436.211,3.348.532v2.984Z" fill="#122129"/><path d="M818.944,911.152c-.373-.052-.754-.08-1.108-.08-1.887,0-3.18.947-3.18,2.789v6.753h-4.069v-12.393h3.945v1.357c.949-1.163,2.4-1.689,4.256-1.689.872,0,1.786.222,2.304.583l-2.148,2.68Z" fill="#122129"/><path d="M835.09,914.399c0,.383-.031.845-.078,1.125h-10.709c.436,1.79,1.965,2.571,3.882,2.571c1.31,0,2.727-.436,3.818-1.189l2.384,2.148c-1.714,1.293-3.896,1.88-6.438,1.88-4.629,0-7.841-2.583-7.841-6.485s3.117-6.561,7.639-6.561c4.351,0,7.329,2.647,7.343,6.511Zm-10.77-1.153h6.687c-.373-1.586-1.544-2.481-3.29-2.481-1.916.002-3.039.947-3.397,2.481Z" fill="#122129"/><path d="M851.208,914.399c0,.383-.032.845-.078,1.125h-10.709c.436,1.79,1.964,2.571,3.881,2.571c1.31,0,2.727-.436,3.818-1.189l2.384,2.148c-1.714,1.293-3.896,1.88-6.438,1.88-4.629,0-7.841-2.583-7.841-6.485s3.117-6.561,7.639-6.561c4.351,0,7.329,2.647,7.344,6.511Zm-10.771-1.153h6.687c-.375-1.586-1.544-2.481-3.29-2.481-1.916.002-3.039.947-3.397,2.481Z" fill="#122129"/><path d="M868.784,914.411c0,3.722-3.148,6.523-7.31,6.523-2.026,0-3.46-.653-4.441-1.612v6.407h-4.052v-17.51h3.974v1.369c.981-1.011,2.432-1.7,4.505-1.7c4.176,0,7.324,2.801,7.324,6.523Zm-11.956,0c0,1.956,1.574,3.414,3.882,3.414c2.401,0,3.896-1.522,3.896-3.414s-1.495-3.415-3.896-3.415c-2.306,0-3.882,1.459-3.882,3.415Z" fill="#122129"/><path d="M875.321,904.166c0,1.202-1.137,2.123-2.603,2.123s-2.588-.921-2.588-2.123c0-1.203,1.122-2.148,2.588-2.148c1.464,0,2.603.947,2.603,2.148Zm-.545,16.448h-4.069v-12.393h4.069v12.393Z" fill="#122129"/><path d="M881.563,912.633l5.689-4.414h4.987l-7.327,5.832l7.373,6.562h-5.004l-5.72-5.013v5.013h-4.066v-18.417h4.068v10.437Z" fill="#122129"/></g><g><path d="M604.372,920.502v-1.823c-1.11,1.241-2.93,2.125-5.027,2.125-3.888,0-6.632-2.429-6.632-6.403c0-3.899,2.714-6.43,6.632-6.43c2.005,0,3.824.81,5.027,2.151v-6.506h2.314v16.883h-2.314v.003Zm0-3.316v-5.543c-.832-1.063-2.622-1.975-4.474-1.975-2.992,0-4.78,2.025-4.78,4.733c0,2.707,1.79,4.707,4.78,4.707c1.854.001,3.642-.859,4.474-1.922Z" fill="#122129"/><path d="M609.679,914.376c0-3.544,3.085-6.404,7.341-6.404c4.505,0,7.156,2.886,7.156,6.556v.483h-12.061c.186,2.303,2.159,4.226,5.369,4.226c1.695,0,3.424-.556,4.595-1.545l1.11,1.241c-1.481,1.215-3.486,1.873-5.922,1.873-4.412-.001-7.588-2.607-7.588-6.43Zm7.31-4.835c-3.178,0-4.751,2.202-4.874,4.075h9.779c-.03-1.821-1.51-4.075-4.905-4.075Z" fill="#122129"/><path d="M625.842,918.881l1.203-1.367c.988.937,2.868,1.747,4.905,1.747c2.283,0,3.517-.886,3.517-2.101c0-2.962-9.225-1.139-9.225-5.669c0-1.898,2.005-3.519,5.552-3.519c2.529,0,4.319.785,5.522,1.773l-1.081,1.317c-.892-.886-2.529-1.545-4.441-1.545-2.037,0-3.3.835-3.3,1.923c0,2.682,9.224.911,9.224,5.67c0,2.051-2.005,3.695-5.861,3.695-2.437,0-4.503-.607-6.015-1.924Z" fill="#122129"/><path d="M640.311,905.265c0-.709.709-1.291,1.541-1.291.864,0,1.573.582,1.573,1.291c0,.708-.709,1.264-1.573,1.264-.832,0-1.541-.556-1.541-1.264Zm.4,15.237v-12.226h2.314v12.226h-2.314Z" fill="#122129"/><path d="M646.85,923.64l1.171-1.417c1.234,1.215,2.714,1.671,4.843,1.671c2.469,0,4.781-.987,4.781-3.67v-1.747c-1.08,1.241-2.9,2.177-4.997,2.177-3.886,0-6.632-2.379-6.632-6.328c0-3.922,2.714-6.354,6.632-6.354c2.004,0,3.795.811,4.997,2.152v-1.847h2.312v11.871c0,4.05-3.456,5.315-7.095,5.315-2.527,0-4.254-.406-6.012-1.823Zm10.797-6.656v-5.341c-.802-1.063-2.59-1.975-4.441-1.975-2.993,0-4.781,1.949-4.781,4.657c0,2.683,1.788,4.656,4.781,4.656c1.849.002,3.639-.934,4.441-1.997Z" fill="#122129"/><path d="M673.872,920.502v-7.999c0-2.151-1.327-2.835-3.332-2.835-1.822,0-3.549.91-4.412,1.899v8.933h-2.314v-12.225h2.314v1.771c1.049-1.013,3.085-2.075,5.305-2.075c3.117,0,4.751,1.29,4.751,3.948v8.581l-2.312.002Z" fill="#122129"/><path d="M679.177,914.376c0-3.544,3.085-6.404,7.341-6.404c4.505,0,7.156,2.886,7.156,6.556v.483h-12.061c.186,2.303,2.159,4.226,5.369,4.226c1.697,0,3.424-.556,4.597-1.545l1.11,1.241c-1.481,1.215-3.486,1.873-5.922,1.873-4.412-.001-7.59-2.607-7.59-6.43Zm7.312-4.835c-3.178,0-4.751,2.202-4.873,4.075h9.778c-.032-1.821-1.512-4.075-4.905-4.075Z" fill="#122129"/><path d="M707.435,920.502v-1.823c-1.11,1.241-2.931,2.125-5.029,2.125-3.888,0-6.632-2.429-6.632-6.403c0-3.899,2.715-6.43,6.632-6.43c2.005,0,3.827.81,5.029,2.151v-6.506h2.312v16.883h-2.312v.003Zm0-3.316v-5.543c-.834-1.063-2.622-1.975-4.473-1.975-2.993,0-4.781,2.025-4.781,4.733c0,2.707,1.788,4.707,4.781,4.707c1.851.001,3.639-.859,4.473-1.922Z" fill="#122129"/><path d="M720.791,920.502v-16.883h2.313v6.506c1.204-1.341,2.992-2.151,5.029-2.151c3.885,0,6.632,2.531,6.632,6.43c0,3.972-2.747,6.404-6.632,6.404-2.098,0-3.917-.887-5.029-2.126v1.823h-2.313v-.003Zm6.756-1.393c3.025,0,4.813-1.999,4.813-4.707c0-2.71-1.79-4.733-4.813-4.733-1.819,0-3.639.911-4.441,1.975v5.544c.8,1.061,2.622,1.921,4.441,1.921Z" fill="#122129"/><path d="M737.294,923.564c.339.126.895.202,1.266.202c1.017,0,1.695-.278,2.222-1.291l.987-1.847-6.231-12.352h2.499l4.966,10.023l4.937-10.023h2.529l-7.466,14.706c-.895,1.771-2.407,2.455-4.38,2.479-.493,0-1.266-.076-1.698-.178l.369-1.719Z" fill="#122129"/></g></g></g><path d="M1195.67,540.694c-6.08.304-11.44,3.13-17.21,3.13" fill="none" stroke="#000" stroke-width="3" stroke-linecap="round"/><path d="M594.824,917.788c18.255,0,35.971,1.565,54.243,1.565c12.913,0,24.577-4.694,37.205-4.694c15.038,0,30.077,0,45.116,0c47.708,0,95.716-1.565,143.17-1.565c2.702,0,22.847-.626,15.3.348-5.026.648-9.803,1.217-14.865,1.217-17.493,0-34.909-1.565-52.418-1.565-40.145,0-80.24,1.565-120.308,1.565-18.912,0-38.733-1.889-57.373,2.347-8.622,1.96-29.063,4.694-36.597-2.26-2.631-2.429-21.6-4.781-6.258-4.781c11.75,0,23.234-1.565,34.945-1.565c30.057,0,59.355-3.129,89.449-3.129c43.174,0,86.348,0,129.523,0c11.084,0,24.13-1.68,34.945,1.564c1.81.543-2.765,2.884-4.608,3.304-17.005,3.874-34.565,5.69-51.809,8.171-22.703,3.265-45.505,3.369-68.412,4.868-25.958,1.698-52.147.869-78.148.869-7.995,0-15.782-3.422-23.732-4.346-6.201-.721-12.542.315-18.689-.783-8.014-1.431-15.947-4.034-23.732-6.345-1.762-.524-16.616-2.691-9.214-6.781c7.05-3.896,14.478-6.131,22.514-4.955c11.944,1.748,22.111,5.895,34.511,5.998c17.672.148,35.353,0,53.026,0c22.797,0,46.017-1.069,68.673,1.565c16.014,1.862,31.866,1.565,47.984,1.565c7.595,0,15.272-.293,22.862.087c16.735.836-33.49,1.261-50.244,1.477-14.297.185-35.168-2.035-49.81,1.565-16.551,4.07,34.114-.165,51.114-1.391c30.22-2.178,60.509-6.432,90.84-6.432c17.186,0-34.41,1.599-51.375,4.346-5.345.866-10.446,2.296-15.734,3.303-.21.04-4.262.126-3.738,1.043c2.369,4.145,9.33,2.156,14.083,2.608c8.329.792,19.852,1.578,28.164,2.086c4.576.28,16.4-3.034,13.735.696-.846,1.185-2.898.287-4.346.435-13.897,1.418-17.346,1.742-32.946,3.651-10.573,1.293-35.782.652-45.637,7.475-1.267.877,2.98.957,4.52.957c14.297,0,28.715-.49,42.942-1.913c8.954-.895,19.89-2.446,23.906-12.083c2.073-4.975,1.508-24.125-5.998-11.387-1.184,2.008-2.352,9.526-1.217,2.434.348-2.179,1.556-9.746,4.52-9.91c15.187-.844,23.664,53.15,6.606,1.391-5.046-15.314-3.632,2.98-3.477,7.649.019.555,1.271,8.078,2.173,5.911c1.026-2.461-.313-6.547-.956-8.866-.783-2.826-2.01-11.174-2.781-8.345-1.44,5.277-5.296,24.588,3.998,14.777.792-.836,3.025-6.12,1.652-5.041-5.841,4.589-10.481,6.367-17.646,6.606-12.986.433-26.701,2.425-39.118,6.346-5.973,1.886-18.546,3.042-3.825,3.042c21.125,0,42.528,1.054,63.631-.087c7.307-.395,20.086-2.7,3.304-3.39-19.185-.788-76.233,1.891-57.547-2.521c16.117-3.805,32.998-5.327,49.375-7.562c1.041-.142,25.369-4.517,9.736-.696-16.259,3.975-29.739,10.035-46.767,10.866-6.31.308-18.95.261-18.95.261s24.108,0,36.162,0c11.415,0,19.98-1.476,30.859-5.216c8.814-3.029-13.8,2.256-14.517,2.434-7.317,1.819-14.544,3.645-21.992,4.868-13.479,2.213,3.721-1.33,4.867-1.651c8.702-2.441,36.748-11.508,10.171-9.997-17.207.978-67.558,4.296-50.94,8.866c11.84,3.256,25.575,4.015,37.901,3.825.674-.01,5.893.349,6.346-.782.999-2.5-5.314-.915-7.998-1.13-16.074-1.286-32.163-2.378-48.245-3.564-18.4-1.357-36.848-3.017-55.286-3.912-.695-.034-2.782,0-2.086,0c2.086,0,4.172,0,6.258,0c19.762,0,39.524,0,59.285,0c1.623,0,3.246,0,4.868,0c2.724,0-5.447,0-8.171,0-13.271,0-26.542,0-39.813,0-7.839,0-20.358,2.047-8.084-6.433c10.144-7.008,22.088-10.635,34.336-10.779c4.325-.051,9.464-.994,13.213,1.652c2.876,2.03-6.253,3.574-9.736,4.086-18.821,2.764-37.804,3.709-56.677,5.911-3.75.437-10.297.723-13.647,3.042-1.169.809,2.752.831,4.172.869c6.891.189,17.853.03,23.905-.086c20.704-.401,41.383-1.299,62.067-2.261c5.215-.242,20.868-.695,15.647-.695-7.711,0-15.415.476-23.123.695-29.611.842-59.223,1.694-88.84,2.261-3.941.075-15.762.135-11.823.26c5.764.183,29.966.669,31.295.696c22.718.451,45.429.782,68.151.782c10.519,0-21.036,0-31.555,0-10.872,0-21.642,4.054-32.424,5.216-19.07,2.055-38.796,1.043-57.894,1.043-17.882,0-38.782-2.371-56.764.261-8.466,1.239-16.484,4.67-25.122,4.433-4.043-.111-36.064-5.046-18.951-9.388c24.754-6.281,53.098-2.448,78.583-3.477c36.304-1.467,72.593-1.217,108.921-1.217c13.184,0,26.369,0,39.553,0c.811,0,3.245,0,2.434,0-5.1,0-10.2,0-15.3,0-56.532,0-113.064,0-169.596,0-13.996,0-55.859-1.85-41.987,0c27.8,3.706,56.435,3.129,84.494,3.129c49.483,0,98.992.485,148.474,0c7.79-.076,30.71-3.758,22.949-4.433-24.051-2.092-51.952,5.644-75.454,10.344-5.061,1.013-19.666,5.758-14.517,5.39c12.015-.858,22.683-10.242,34.858-11.301c8.498-.739,6.256.082-3.477,1.391-11.242,1.511-22.488,2.996-33.728,4.52-6.976.946,5.779-.405,6.085-.434c15.729-1.513,31.681-.783,47.463-.783c4.754,0,9.377.91,14.082,1.565c5.501.765,20.812,2.938,7.041-1.739-19.626-6.665-43.909-13.908-64.5-13.908-2.333,0-15.688-2.968-8.085-3.13c16.281-.346,65.138,0,48.854,0-18.545,0-37.09.051-55.634,0-27.472-.075,5.727-1.126,8.693-1.217c12.385-.376,25.404-1.388,37.813-.26c10.571.961-8.998,31.207-19.645,31.207-26.98,0-53.719-3.13-80.844-3.13-23.983,0-47.575-1.564-71.628-1.564-15.777,0-32.647,2.059-47.463-3.738-6.762-2.646-1.615-6.347,3.564-9.128c14.924-8.015,33.127-5.911,49.462-5.911c9.141,0,12.35-.312-.608.348-12.094.616-22.986,2.488-34.772,4.955-8.963,1.876-1.876.736,2.782,1.304c18.132,2.211,35.472,5.473,53.896,5.824c12.222.233,24.458.087,36.683.087c9.968,0,19.936,0,29.903,0c3.349,0,20.928-2.319,23.906,1.652c3.448,4.597-11.38,2.139-17.125,1.999-24.714-.601-49.812-2.085-74.237-6.085-17.594-2.882-34.186-8.519-52.244-8.519-12.356,0,24.417,4.447,36.771,4.694c24.551.491,49.158,0,73.715,0c18.284,0,36.568,0,54.852,0c17.207,0-33.819,7.824-51.027,7.824-33.902,0-67.804,0-101.706,0-4.743,0-15.238,1.249-17.212-5.39-2.076-6.984,2.195-10.9,8.519-12.518c10.636-2.72,21.629-2.434,32.511-2.434c7.899,0-12.798,5.258-16.168,7.65-4.304,3.054-29.73,24.592-29.73,11.562c0-15.435,13.749-12.372,18.69-22.254.943-1.886,2.002-.594,2.347,1.13c1.161,5.807-.988,10.299-4.347,14.778-7.311,9.749,27.098,4.609,32.164,4.259c18.287-1.261,35.629-3.73,54.069-2.347c13.004.976,25.962,2.605,38.944,3.825c6.936.652,16.41.082,23.384,1.826c3.662.915-7.317,1.9-11.04,2.52-17.367,2.895-34.835,5.651-52.331,7.65-8.091.925-16.214.696-24.34.696-14.712,0-29.39-1.978-43.985-3.651-2.409-.277-9.435-1.44-7.042-1.826c12.845-2.072,25.895-2.887,38.77-4.955c18.024-2.895,36.325-8.345,54.678-8.345c3.687,0,11.385-1.566,14.691.087c3.893,1.947-8.689.551-13.039.695-11.944.396-20.242.553-32.251.696-7.326.087-16.253-.816-23.644.782-2.631.569-5.428,2.434-8.171,2.434-3.07,0,5.741-3.886,8.692-3.042.616.176,3.78,18.616-3.737,4.52-2.722-5.102-6.927-24.317-14.691-23.123-12.272,1.888-24.293,4.966-36.684,5.998-13.339,1.112,9.303,12.542,13.561,14.604c7.901,3.827-14.883,8.36-18.516,9.388-2.319.657-9.234,1.805-6.867,2.26c4.509.868,9.17-.548,13.734-1.043c12.41-1.345,26.894-3.125,39.118-5.215c8.787-1.503,22.147-3.048,30.425-7.824c8.861-5.112-20.459-.675-30.686-.435-18.167.427-36.332.699-54.504.783-1.506.007-6.027,0-4.52,0c1.681,0,3.361.016,5.042,0c10.917-.102,18.975-.205,30.077-.696c10.104-.446,20.474-.878,30.512-2.347c5.674-.83-2.188-1.553-2.521-1.564-4.678-.156-45.361.385-44.16-2.695c4.721-12.096,15.172-15.207,27.47-12.692c1.361.279,12.946,3.332,11.3,5.39-7.52,9.4-24.456,2.609-31.989,9.388-4.623,4.16-6.612,11.43-11.562,15.734-6.279,5.461,1.71-28.237,3.043-31.729c5.713-14.968,15.24-.537,22.949,4.694c6.236,4.232,29.785,3.72,22.254,3.999-12.617.467-24.868,2.696-37.293,4.607-4.843.746-4.753,1.457-6.693,7.042-1.507,4.336-7.68,16.285-4.433,13.039c4.951-4.951,7.713-13.089,12.952-18.429c6.679-6.808,8.039-6.375,16.169-3.825c8.499,2.667,19.622.696,28.338.696c12.328,0,25.057.63,37.205-1.913c14.881-3.114,31.162-1.056,46.246-1.304c1.97-.032,34.278-1.478,15.995-1.478-17.987,0-35.499,2.436-53.113,6.172-21.859,4.637,8.534,4.781,14.691,4.781c9.272,0,18.544,0,27.817,0c7.185,0,14.372.038,21.558,0c6.156-.032,22.37,3.513,18.429-1.217-3.223-3.867-10.038.817-15.039,1.391-13.904,1.596-27.844,3.4-41.812,4.347-3.343.226-29.523.79-15.995-.522c23.868-2.314,47.625-4.285,71.455-6.954c9.586-1.074,19.214-1.666,28.86-1.739c5.3-.04,5.395.23,1.391,1.565-11.84,3.946-24.039,8.63-36.336,10.866-16.486,2.997,32.988-6.527,49.723-7.389c10.068-.518,17.871-1.769,26.513,3.216c5.39,3.11,10.813,6.094,16.429,8.78c3.742,1.79,4.586,1.739.522,1.739-8.387,0-10.649-1.178-18.429-5.303-9.326-4.944-19.006-9.08-28.513-13.648-4.4-2.114-9.006-5.835-14.082-6.085-5.442-.267-10.902.253-16.342-.173-6.721-.528-13.396-1.585-19.994-2.956-7.303-1.518-14.039-3.004-.695-3.129c10.516-.099,21.038,0,31.555,0c1.458,0,7.9-.867,9.388.869.744.869-18.114,8.052-20.602,9.04-7.861,3.125-18.193,3.86-26.252,4.955-17.305,2.352-34.603,3.912-52.07,3.912-12.279,0,9.366,3.124,10.866,3.13c22.452.088,44.844-1.565,67.282-1.565c1.333,0,2.666,0,3.999,0c.753,0-1.507,0-2.26,0-13.387,0-26.774,0-40.161,0-18.631,0-37.132-.55-55.634,1.565-9.585,1.095-14.692,1.621.869,1.564c36.111-.132,77.101,3.358,112.311-7.476c3.068-.943-5.928-.394-7.128-.26-6.182.687-13.538,7.641-19.646,9.822-2.851,1.019-19.474,5.375-18.428,4.173c9.768-11.233,30.226-18.496,44.681-20.341c8.761-1.119,1.248-10.005-1.913-.522-3.716,11.15,40.288,8.345,47.811,8.345c10.164,0,1.487,6.214-2.434,10.606-7.018,7.86,2.295,14.535,4.346,20.689" fill="none" stroke="#fff" stroke-width="3" stroke-linecap="round"/><path d="M1180.02,542.259c4.95,0,15.62-12.88,14-.696-.85,6.392-10.64,10.692-15.56,13.474-2.64,1.492-1.57-13.253-1.57-15.908c0-6.581.18-7.285,4.52-1.043.16.226,6.16,9.902,7.31,9.041c1.58-1.19-2.38-9.845-3.05-11.388-4.45-10.382,7.74.439,7.74,7.041c0,4.824-3.75-9.09-4-13.908-.38-7.444-1.18,3.504-1.56,5.563-.54,2.915-.62,11.173-4.09,13.04-4.82,2.596-11.32-8.751-11.56-12.518-1.08-16.876,18.32,15.406,17.82,12.604-1.09-6.127-2.17-12.443-2.17-18.689c0-5.458,9.96,10.379,10.52,11.387c6.46,11.643,3.19,2.509,1.99-5.65-.64-4.366-2.89-17.273-3.12-12.865-.22,4.065-.15,8.274,0,12.344.1,2.97,2.79,4.515,3.04,7.649.19,2.42,1.19,8.359-.09,10.605-2.22,3.891-13.08-1.273-15.12-2.955-5.02-4.126-11.31-10.776-11.31-17.212c0-2.619,17.83.776,12.52,9.736-3.71,6.26,3.19,13.039,2.78,7.997-.44-5.568-3.03-32.851-5.12-14.43-.56,4.921-.79,9.66-.79,14.604c0,14.721-11.08-10.657-13.38-14.951-1.63-3.034-5.26-6.15-5.39-9.736-.22-5.758,14.1,4.034,15.21,5.042c3.18,2.898,5.09,5.875,6.87,9.649c1.17,2.494,5.07,11.722,4.17,4.433-.14-1.108-2.26-14.102-2.09-14.082c3.11.344,7.13,6.339,7.13,9.301c0,3.709,0-7.418,0-11.127c0-5.936,4.22,6.369,4,7.041-.37,1.106-9.92-2.781-8-2.781c2.59,0,6.2,1.998,7.83,4.085c4.73,6.093.86,27.99.86,34.511c0,12.468-1.48,25.99,1.92,38.074c1.38,4.919,1.06,11.162,1.13,15.995.33,23.757-.06,47.523.08,71.281.34,55.875,1.14,111.913,10.87,167.076c1.59,8.998-4.64,6.278-13.39,7.736-58.91,9.819-115.58,33.761-173.68,47.55-40.389,9.586-82.513,17.386-124.219,17.386-12.452,0-25.384,1.098-37.727-.696-12.848-1.867-25.874-7.243-38.249-10.779-17.439-4.983-34.973-9.613-52.678-13.561-4.914-1.095-19.813-3.129-14.778-3.129c10.765,0,21.551-1.253,32.251.174c13.921,1.856,26.701,5.375,40.769,5.737c14.737.379,29.519-.132,44.246.435c4.989.192-9.897,1.328-14.864,1.825-11.842,1.184-23.673,2.035-35.554,2.695-.337.019-19.795,2.252-5.65,1.217c17.495-1.28,68.972-11.111,52.33-5.563-5.065,1.688-18.602,1.866-18.602,9.127c0,1.203.419,3.324-.348,4.346-.231.308-.484.132.869-.695c2.128-1.3,8.177-3.98,2.434-5.129-21.264-4.253-45.507-6.816-67.108-3.216" fill="none" stroke="#fff" stroke-width="3" stroke-linecap="round"/></g><clipPath id="eAFYybTv4zo152"><rect width="1053" height="864" rx="0" ry="0" transform="translate(216 98)" fill="#fff"/></clipPath></g></g>
<script><![CDATA[
!function(t,n){"object"==typeof exports&&"undefined"!=typeof module?module.exports=n():"function"==typeof __SVGATOR_DEFINE__&&__SVGATOR_DEFINE__.amd?__SVGATOR_DEFINE__(n):((t="undefined"!=typeof globalThis?globalThis:t||self).__SVGATOR_PLAYER__=t.__SVGATOR_PLAYER__||{},t.__SVGATOR_PLAYER__["5c7f360c"]=n())}(this,(function(){"use strict";function t(t,n){var e=Object.keys(t);if(Object.getOwnPropertySymbols){var r=Object.getOwnPropertySymbols(t);n&&(r=r.filter((function(n){return Object.getOwnPropertyDescriptor(t,n).enumerable}))),e.push.apply(e,r)}return e}function n(n){for(var e=1;e<arguments.length;e++){var r=null!=arguments[e]?arguments[e]:{};e%2?t(Object(r),!0).forEach((function(t){o(n,t,r[t])})):Object.getOwnPropertyDescriptors?Object.defineProperties(n,Object.getOwnPropertyDescriptors(r)):t(Object(r)).forEach((function(t){Object.defineProperty(n,t,Object.getOwnPropertyDescriptor(r,t))}))}return n}function e(t){return(e="function"==typeof Symbol&&"symbol"==typeof Symbol.iterator?function(t){return typeof t}:function(t){return t&&"function"==typeof Symbol&&t.constructor===Symbol&&t!==Symbol.prototype?"symbol":typeof t})(t)}function r(t,n){if(!(t instanceof n))throw new TypeError("Cannot call a class as a function")}function i(t,n){for(var e=0;e<n.length;e++){var r=n[e];r.enumerable=r.enumerable||!1,r.configurable=!0,"value"in r&&(r.writable=!0),Object.defineProperty(t,r.key,r)}}function u(t,n,e){return n&&i(t.prototype,n),e&&i(t,e),t}function o(t,n,e){return n in t?Object.defineProperty(t,n,{value:e,enumerable:!0,configurable:!0,writable:!0}):t[n]=e,t}function a(t){return(a=Object.setPrototypeOf?Object.getPrototypeOf:function(t){return t.__proto__||Object.getPrototypeOf(t)})(t)}function l(t,n){return(l=Object.setPrototypeOf||function(t,n){return t.__proto__=n,t})(t,n)}function s(){if("undefined"==typeof Reflect||!Reflect.construct)return!1;if(Reflect.construct.sham)return!1;if("function"==typeof Proxy)return!0;try{return Boolean.prototype.valueOf.call(Reflect.construct(Boolean,[],(function(){}))),!0}catch(t){return!1}}function f(t,n,e){return(f=s()?Reflect.construct:function(t,n,e){var r=[null];r.push.apply(r,n);var i=new(Function.bind.apply(t,r));return e&&l(i,e.prototype),i}).apply(null,arguments)}function c(t,n){if(n&&("object"==typeof n||"function"==typeof n))return n;if(void 0!==n)throw new TypeError("Derived constructors may only return object or undefined");return function(t){if(void 0===t)throw new ReferenceError("this hasn't been initialised - super() hasn't been called");return t}(t)}function h(t,n,e){return(h="undefined"!=typeof Reflect&&Reflect.get?Reflect.get:function(t,n,e){var r=function(t,n){for(;!Object.prototype.hasOwnProperty.call(t,n)&&null!==(t=a(t)););return t}(t,n);if(r){var i=Object.getOwnPropertyDescriptor(r,n);return i.get?i.get.call(e):i.value}})(t,n,e||t)}function v(t){return function(t){if(Array.isArray(t))return y(t)}(t)||function(t){if("undefined"!=typeof Symbol&&null!=t[Symbol.iterator]||null!=t["@@iterator"])return Array.from(t)}(t)||function(t,n){if(!t)return;if("string"==typeof t)return y(t,n);var e=Object.prototype.toString.call(t).slice(8,-1);"Object"===e&&t.constructor&&(e=t.constructor.name);if("Map"===e||"Set"===e)return Array.from(t);if("Arguments"===e||/^(?:Ui|I)nt(?:8|16|32)(?:Clamped)?Array$/.test(e))return y(t,n)}(t)||function(){throw new TypeError("Invalid attempt to spread non-iterable instance.\nIn order to be iterable, non-array objects must have a [Symbol.iterator]() method.")}()}function y(t,n){(null==n||n>t.length)&&(n=t.length);for(var e=0,r=new Array(n);e<n;e++)r[e]=t[e];return r}function g(t,n,e){if(Number.isInteger(t))return t;var r=Math.pow(10,n);return Math[e]((+t+Number.EPSILON)*r)/r}Number.isInteger||(Number.isInteger=function(t){return"number"==typeof t&&isFinite(t)&&Math.floor(t)===t}),Number.EPSILON||(Number.EPSILON=2220446049250313e-31);var p=d(Math.pow(10,-6));function d(t){var n=arguments.length>1&&void 0!==arguments[1]?arguments[1]:6;return g(t,n,"round")}function m(t,n){var e=arguments.length>2&&void 0!==arguments[2]?arguments[2]:p;return Math.abs(t-n)<e}d(Math.pow(10,-2)),d(Math.pow(10,-4));var b=Math.PI/180;function w(t){return t*b}function x(t){return t/b}function _(t){return t}function A(t,n,e){var r=1-e;return 3*e*r*(t*r+n*e)+e*e*e}function k(){var t=arguments.length>0&&void 0!==arguments[0]?arguments[0]:0,n=arguments.length>1&&void 0!==arguments[1]?arguments[1]:0,e=arguments.length>2&&void 0!==arguments[2]?arguments[2]:1,r=arguments.length>3&&void 0!==arguments[3]?arguments[3]:1;return t<0||t>1||e<0||e>1?null:m(t,n)&&m(e,r)?_:function(i){if(i<=0)return t>0?i*n/t:0===n&&e>0?i*r/e:0;if(i>=1)return e<1?1+(i-1)*(r-1)/(e-1):1===e&&t<1?1+(i-1)*(n-1)/(t-1):1;for(var u,o=0,a=1;o<a;){var l=A(t,e,u=(o+a)/2);if(m(i,l))break;l<i?o=u:a=u}return A(n,r,u)}}function S(){return 1}function O(t){return 1===t?1:0}function j(){var t=arguments.length>0&&void 0!==arguments[0]?arguments[0]:1,n=arguments.length>1&&void 0!==arguments[1]?arguments[1]:0;if(1===t){if(0===n)return O;if(1===n)return S}var e=1/t;return function(t){return t>=1?1:(t+=n*e)-t%e}}var M=Math.sin,E=Math.cos,P=Math.acos,I=Math.asin,R=Math.tan,F=Math.atan2,N=Math.sqrt,T=function(){function t(){var n=arguments.length>0&&void 0!==arguments[0]?arguments[0]:1,e=arguments.length>1&&void 0!==arguments[1]?arguments[1]:0,i=arguments.length>2&&void 0!==arguments[2]?arguments[2]:0,u=arguments.length>3&&void 0!==arguments[3]?arguments[3]:1,o=arguments.length>4&&void 0!==arguments[4]?arguments[4]:0,a=arguments.length>5&&void 0!==arguments[5]?arguments[5]:0;r(this,t),this.m=[n,e,i,u,o,a],this.i=null,this.w=null,this.s=null}return u(t,[{key:"determinant",get:function(){var t=this.m;return t[0]*t[3]-t[1]*t[2]}},{key:"isIdentity",get:function(){if(null===this.i){var t=this.m;this.i=1===t[0]&&0===t[1]&&0===t[2]&&1===t[3]&&0===t[4]&&0===t[5]}return this.i}},{key:"point",value:function(t,n){var e=this.m;return{x:e[0]*t+e[2]*n+e[4],y:e[1]*t+e[3]*n+e[5]}}},{key:"translateSelf",value:function(){var t=arguments.length>0&&void 0!==arguments[0]?arguments[0]:0,n=arguments.length>1&&void 0!==arguments[1]?arguments[1]:0;if(!t&&!n)return this;var e=this.m;return e[4]+=e[0]*t+e[2]*n,e[5]+=e[1]*t+e[3]*n,this.w=this.s=this.i=null,this}},{key:"rotateSelf",value:function(){var t=arguments.length>0&&void 0!==arguments[0]?arguments[0]:0;if(t%=360){t=w(t);var n=M(t),e=E(t),r=this.m,i=r[0],u=r[1];r[0]=i*e+r[2]*n,r[1]=u*e+r[3]*n,r[2]=r[2]*e-i*n,r[3]=r[3]*e-u*n,this.w=this.s=this.i=null}return this}},{key:"scaleSelf",value:function(){var t=arguments.length>0&&void 0!==arguments[0]?arguments[0]:1,n=arguments.length>1&&void 0!==arguments[1]?arguments[1]:1;if(1!==t||1!==n){var e=this.m;e[0]*=t,e[1]*=t,e[2]*=n,e[3]*=n,this.w=this.s=this.i=null}return this}},{key:"skewSelf",value:function(t,n){if(n%=360,(t%=360)||n){var e=this.m,r=e[0],i=e[1],u=e[2],o=e[3];t&&(t=R(w(t)),e[2]+=r*t,e[3]+=i*t),n&&(n=R(w(n)),e[0]+=u*n,e[1]+=o*n),this.w=this.s=this.i=null}return this}},{key:"resetSelf",value:function(){var t=arguments.length>0&&void 0!==arguments[0]?arguments[0]:1,n=arguments.length>1&&void 0!==arguments[1]?arguments[1]:0,e=arguments.length>2&&void 0!==arguments[2]?arguments[2]:0,r=arguments.length>3&&void 0!==arguments[3]?arguments[3]:1,i=arguments.length>4&&void 0!==arguments[4]?arguments[4]:0,u=arguments.length>5&&void 0!==arguments[5]?arguments[5]:0,o=this.m;return o[0]=t,o[1]=n,o[2]=e,o[3]=r,o[4]=i,o[5]=u,this.w=this.s=this.i=null,this}},{key:"recomposeSelf",value:function(){var t=arguments.length>0&&void 0!==arguments[0]?arguments[0]:null,n=arguments.length>1&&void 0!==arguments[1]?arguments[1]:null,e=arguments.length>2&&void 0!==arguments[2]?arguments[2]:null,r=arguments.length>3&&void 0!==arguments[3]?arguments[3]:null,i=arguments.length>4&&void 0!==arguments[4]?arguments[4]:null;return this.isIdentity||this.resetSelf(),t&&(t.x||t.y)&&this.translateSelf(t.x,t.y),n&&this.rotateSelf(n),e&&(e.x&&this.skewSelf(e.x,0),e.y&&this.skewSelf(0,e.y)),!r||1===r.x&&1===r.y||this.scaleSelf(r.x,r.y),i&&(i.x||i.y)&&this.translateSelf(i.x,i.y),this}},{key:"decompose",value:function(){var t=arguments.length>0&&void 0!==arguments[0]?arguments[0]:0,n=arguments.length>1&&void 0!==arguments[1]?arguments[1]:0,e=this.m,r=e[0]*e[0]+e[1]*e[1],i=[[e[0],e[1]],[e[2],e[3]]],u=N(r);if(0===u)return{origin:{x:d(e[4]),y:d(e[5])},translate:{x:d(t),y:d(n)},scale:{x:0,y:0},skew:{x:0,y:0},rotate:0};i[0][0]/=u,i[0][1]/=u;var o=e[0]*e[3]-e[1]*e[2]<0;o&&(u=-u);var a=i[0][0]*i[1][0]+i[0][1]*i[1][1];i[1][0]-=i[0][0]*a,i[1][1]-=i[0][1]*a;var l,s=N(i[1][0]*i[1][0]+i[1][1]*i[1][1]);return 0===s?{origin:{x:d(e[4]),y:d(e[5])},translate:{x:d(t),y:d(n)},scale:{x:d(u),y:0},skew:{x:0,y:0},rotate:0}:(i[1][0]/=s,i[1][1]/=s,a/=s,i[1][1]<0?(l=x(P(i[1][1])),i[0][1]<0&&(l=360-l)):l=x(I(i[0][1])),o&&(l=-l),a=x(F(a,N(i[0][0]*i[0][0]+i[0][1]*i[0][1]))),o&&(a=-a),{origin:{x:d(e[4]),y:d(e[5])},translate:{x:d(t),y:d(n)},scale:{x:d(u),y:d(s)},skew:{x:d(a),y:0},rotate:d(l)})}},{key:"multiply",value:function(t){return this.clone().multiplySelf(t)}},{key:"preMultiply",value:function(t){return t.multiply(this)}},{key:"multiplySelf",value:function(t){var n=q(this.m,t.m),e=n.a,r=n.b,i=n.c,u=n.d,o=n.tx,a=n.ty;return this.resetSelf(e,r,i,u,o,a),this}},{key:"preMultiplySelf",value:function(t){var n=q(t.m,this.m),e=n.a,r=n.b,i=n.c,u=n.d,o=n.tx,a=n.ty;return this.resetSelf(e,r,i,u,o,a),this}},{key:"clone",value:function(){var t=this.m;return new this.constructor(t[0],t[1],t[2],t[3],t[4],t[5])}},{key:"toString",value:function(){var t=arguments.length>0&&void 0!==arguments[0]?arguments[0]:" ";if(null===this.s){var n=this.m.map((function(t){return d(t)}));1===n[0]&&0===n[1]&&0===n[2]&&1===n[3]?this.s="translate("+n[4]+t+n[5]+")":this.s="matrix("+n.join(t)+")"}return this.s}}],[{key:"create",value:function(t){return t?Array.isArray(t)?f(this,v(t)):t instanceof this?t.clone():(new this).recomposeSelf(t.origin,t.rotate,t.skew,t.scale,t.translate):new this}}]),t}();function q(t,n){return{a:t[0]*n[0]+t[2]*n[1],b:t[1]*n[0]+t[3]*n[1],c:t[0]*n[2]+t[2]*n[3],d:t[1]*n[2]+t[3]*n[3],tx:t[0]*n[4]+t[2]*n[5]+t[4],ty:t[1]*n[4]+t[3]*n[5]+t[5]}}function B(t,n,e){return t>=.5?e:n}function D(t,n,e){return 0===t||n===e?n:t*(e-n)+n}function L(t,n,e){var r=D(t,n,e);return r<=0?0:r}function C(t,n,e){var r=D(t,n,e);return r<=0?0:r>=1?1:r}function V(t,n,e){return 0===t?n:1===t?e:{x:D(t,n.x,e.x),y:D(t,n.y,e.y)}}function G(t,n,e){var r=function(t,n,e){return Math.round(D(t,n,e))}(t,n,e);return r<=0?0:r>=255?255:r}function z(t,n,e){return 0===t?n:1===t?e:{r:G(t,n.r,e.r),g:G(t,n.g,e.g),b:G(t,n.b,e.b),a:D(t,null==n.a?1:n.a,null==e.a?1:e.a)}}function Y(t,n){for(var e=[],r=0;r<t;r++)e.push(n);return e}function $(t,n){if(--n<=0)return t;var e=(t=Object.assign([],t)).length;do{for(var r=0;r<e;r++)t.push(t[r])}while(--n>0);return t}var U,Q=function(){function t(n){r(this,t),this.list=n,this.length=n.length}return u(t,[{key:"setAttribute",value:function(t,n){for(var e=this.list,r=0;r<this.length;r++)e[r].setAttribute(t,n)}},{key:"removeAttribute",value:function(t){for(var n=this.list,e=0;e<this.length;e++)n[e].removeAttribute(t)}},{key:"style",value:function(t,n){for(var e=this.list,r=0;r<this.length;r++)e[r].style[t]=n}}]),t}(),H=/-./g,J=function(t,n){return n.toUpperCase()};function Z(t){return"function"==typeof t?t:B}function K(t){return t?"function"==typeof t?t:Array.isArray(t)?function(t){var n=arguments.length>1&&void 0!==arguments[1]?arguments[1]:_;if(!Array.isArray(t))return n;switch(t.length){case 1:return j(t[0])||n;case 2:return j(t[0],t[1])||n;case 4:return k(t[0],t[1],t[2],t[3])||n}return n}(t,null):function(t,n){var e=arguments.length>2&&void 0!==arguments[2]?arguments[2]:_;switch(t){case"linear":return _;case"steps":return j(n.steps||1,n.jump||0)||e;case"bezier":case"cubic-bezier":return k(n.x1||0,n.y1||0,n.x2||0,n.y2||0)||e}return e}(t.type,t.value,null):null}function W(t,n,e){var r=arguments.length>3&&void 0!==arguments[3]&&arguments[3],i=n.length-1;if(t<=n[0].t)return r?[0,0,n[0].v]:n[0].v;if(t>=n[i].t)return r?[i,1,n[i].v]:n[i].v;var u,o=n[0],a=null;for(u=1;u<=i;u++){if(!(t>n[u].t)){a=n[u];break}o=n[u]}return null==a?r?[i,1,n[i].v]:n[i].v:o.t===a.t?r?[u,1,a.v]:a.v:(t=(t-o.t)/(a.t-o.t),o.e&&(t=o.e(t)),r?[u,t,e(t,o.v,a.v)]:e(t,o.v,a.v))}function X(t,n){var e=arguments.length>2&&void 0!==arguments[2]?arguments[2]:null;return t&&t.length?"function"!=typeof n?null:("function"!=typeof e&&(e=null),function(r){var i=W(r,t,n);return null!=i&&e&&(i=e(i)),i}):null}function tt(t,n){return t.t-n.t}function nt(t,n,r,i,u){var o,a="@"===r[0],l="#"===r[0],s=U[r],f=B;switch(a?(o=r.substr(1),r=o.replace(H,J)):l&&(r=r.substr(1)),e(s)){case"function":if(f=s(i,u,W,K,r,a,n,t),l)return f;break;case"string":f=X(i,Z(s));break;case"object":if((f=X(i,Z(s.i),s.f))&&"function"==typeof s.u)return s.u(n,f,r,a,t)}return f?function(t,n,e){if(arguments.length>3&&void 0!==arguments[3]&&arguments[3])return t instanceof Q?function(r){return t.style(n,e(r))}:function(r){return t.style[n]=e(r)};if(Array.isArray(n)){var r=n.length;return function(i){var u=e(i);if(null==u)for(var o=0;o<r;o++)t[o].removeAttribute(n);else for(var a=0;a<r;a++)t[a].setAttribute(n,u)}}return function(r){var i=e(r);null==i?t.removeAttribute(n):t.setAttribute(n,i)}}(n,r,f,a):null}function et(t,n,r,i){if(!i||"object"!==e(i))return null;var u=null,o=null;return Array.isArray(i)?o=function(t){if(!t||!t.length)return null;for(var n=0;n<t.length;n++)t[n].e&&(t[n].e=K(t[n].e));return t.sort(tt)}(i):(o=i.keys,u=i.data||null),o?nt(t,n,r,o,u):null}function rt(t,n,e){if(!e)return null;var r=[];for(var i in e)if(e.hasOwnProperty(i)){var u=et(t,n,i,e[i]);u&&r.push(u)}return r.length?r:null}function it(t,n){if(!n.settings.duration||n.settings.duration<0)return null;var e,r,i,u,o,a=function(t,n){if(!n)return null;var e=[];if(Array.isArray(n))for(var r=n.length,i=0;i<r;i++){var u=n[i];if(2===u.length){var o=null;if("string"==typeof u[0])o=t.getElementById(u[0]);else if(Array.isArray(u[0])){o=[];for(var a=0;a<u[0].length;a++)if("string"==typeof u[0][a]){var l=t.getElementById(u[0][a]);l&&o.push(l)}o=o.length?1===o.length?o[0]:new Q(o):null}if(o){var s=rt(t,o,u[1]);s&&(e=e.concat(s))}}}else for(var f in n)if(n.hasOwnProperty(f)){var c=t.getElementById(f);if(c){var h=rt(t,c,n[f]);h&&(e=e.concat(h))}}return e.length?e:null}(t,n.elements);return a?(e=a,r=n.settings,i=r.duration,u=e.length,o=null,function(t,n){var a=r.iterations||1/0,l=(r.alternate&&a%2==0)^r.direction>0?i:0,s=t%i,f=1+(t-s)/i;n*=r.direction,r.alternate&&f%2==0&&(n=-n);var c=!1;if(f>a)s=l,c=!0,-1===r.fill&&(s=r.direction>0?0:i);else if(n<0&&(s=i-s),s===o)return!1;o=s;for(var h=0;h<u;h++)e[h](s);return c}):null}function ut(t,n){for(var e=n.querySelectorAll("svg"),r=0;r<e.length;r++)if(e[r].id===t.root&&!e[r].svgatorAnimation)return e[r].svgatorAnimation=!0,e[r];return null}function ot(t){var n=function(t){return t.shadowRoot};return document?Array.from(t.querySelectorAll(":not("+["a","area","audio","br","canvas","circle","datalist","embed","g","head","hr","iframe","img","input","link","object","path","polygon","rect","script","source","style","svg","title","track","video"].join()+")")).filter(n).map(n):[]}function at(t){var n=arguments.length>1&&void 0!==arguments[1]?arguments[1]:document,e=arguments.length>2&&void 0!==arguments[2]?arguments[2]:0,r=ut(t,n);if(r)return r;if(e>=20)return null;for(var i=ot(n),u=0;u<i.length;u++){var o=at(t,i[u],e+1);if(o)return o}return null}function lt(t,n){if(U=n,!t||!t.root||!Array.isArray(t.animations))return null;var e=at(t);if(!e)return null;var r=t.animations.map((function(t){return it(e,t)})).filter((function(t){return!!t}));return r.length?{svg:e,animations:r,animationSettings:t.animationSettings,options:t.options||void 0}:null}function st(t){var n=arguments.length>1&&void 0!==arguments[1]?arguments[1]:null,e=arguments.length>2&&void 0!==arguments[2]?arguments[2]:Number,r=arguments.length>3&&void 0!==arguments[3]?arguments[3]:"undefined"!=typeof BigInt&&BigInt,i="0x"+(t.replace(/[^0-9a-fA-F]+/g,"")||27);return n&&r&&e.isSafeInteger&&!e.isSafeInteger(+i)?e(r(i))%n+n:+i}function ft(t,n,e){return!t||!e||n>t.length?t:t.substring(0,n)+ft(t.substring(n+1),e,e)}function ct(t){var n=arguments.length>1&&void 0!==arguments[1]?arguments[1]:27;return!t||t%n?t%n:[0,1].includes(n)?n:ct(t/n,n)}function ht(t,n,e){if(t&&t.length){var r=st(e),i=ct(r)+5,u=ft(t,ct(r,5),i);return u=u.replace(/\x7c$/g,"==").replace(/\x2f$/g,"="),u=function(t,n,e){var r=+("0x"+t.substring(0,4));t=t.substring(4);for(var i=st(n,r)%r+e%27,u=[],o=0;o<t.length;o+=2)if("|"!==t[o]){var a=+("0x"+t[o]+t[o+1])-i;u.push(a)}else{var l=+("0x"+t.substring(o+1,o+1+4))-i;o+=3,u.push(l)}return String.fromCharCode.apply(String,u)}(u=(u=atob(u)).replace(/[\x41-\x5A]/g,""),n,r),u=JSON.parse(u)}}var vt=[{key:"alternate",def:!1},{key:"fill",def:1},{key:"iterations",def:0},{key:"direction",def:1},{key:"speed",def:1},{key:"fps",def:100}],yt=function(){function t(n,e){var i=this,u=arguments.length>2&&void 0!==arguments[2]?arguments[2]:null;r(this,t),this._id=0,this._running=!1,this._rollingBack=!1,this._animations=n,this._settings=e,(!u||u<"2022-05-02")&&delete this._settings.speed,vt.forEach((function(t){i._settings[t.key]=i._settings[t.key]||t.def})),this.duration=e.duration,this.offset=e.offset||0,this.rollbackStartOffset=0}return u(t,[{key:"alternate",get:function(){return this._settings.alternate}},{key:"fill",get:function(){return this._settings.fill}},{key:"iterations",get:function(){return this._settings.iterations}},{key:"direction",get:function(){return this._settings.direction}},{key:"speed",get:function(){return this._settings.speed}},{key:"fps",get:function(){return this._settings.fps}},{key:"maxFiniteDuration",get:function(){return this.iterations>0?this.iterations*this.duration:this.duration}},{key:"_apply",value:function(t){for(var n=arguments.length>1&&void 0!==arguments[1]?arguments[1]:{},e=this._animations,r=e.length,i=0,u=0;u<r;u++)n[u]?i++:(n[u]=e[u](t,1),n[u]&&i++);return i}},{key:"_rollback",value:function(t){var n=this,e=1/0,r=null;this.rollbackStartOffset=t,this._rollingBack=!0,this._running=!0;this._id=window.requestAnimationFrame((function i(u){if(n._rollingBack){null==r&&(r=u);var o=Math.round(t-(u-r)*n.speed);if(o>n.duration&&e!==1/0){var a=!!n.alternate&&o/n.duration%2>1,l=o%n.duration;o=(l+=a?n.duration:0)||n.duration}var s=(n.fps?1e3/n.fps:0)*n.speed,f=Math.max(0,o);f<=e-s&&(n.offset=f,e=f,n._apply(f));var c=n.iterations>0&&-1===n.fill&&o>=n.maxFiniteDuration;(o<=0||n.offset<o||c)&&n.stop(),n._id=window.requestAnimationFrame(i)}}))}},{key:"_start",value:function(){var t=this,n=arguments.length>0&&void 0!==arguments[0]?arguments[0]:0,e=-1/0,r=null,i={};this._running=!0;var u=function u(o){null==r&&(r=o);var a=Math.round((o-r)*t.speed+n),l=(t.fps?1e3/t.fps:0)*t.speed;if(a>=e+l&&!t._rollingBack&&(t.offset=a,e=a,t._apply(a,i)===t._animations.length))return void t.pause(!0);t._id=window.requestAnimationFrame(u)};this._id=window.requestAnimationFrame(u)}},{key:"_pause",value:function(){this._id&&window.cancelAnimationFrame(this._id),this._running=!1}},{key:"play",value:function(){if(!this._running)return this._rollingBack?this._rollback(this.offset):this._start(this.offset)}},{key:"stop",value:function(){this._pause(),this.offset=0,this.rollbackStartOffset=0,this._rollingBack=!1,this._apply(0)}},{key:"reachedToEnd",value:function(){return this.iterations>0&&this.offset>=this.iterations*this.duration}},{key:"restart",value:function(){var t=arguments.length>0&&void 0!==arguments[0]&&arguments[0];this.stop(t),this.play(t)}},{key:"pause",value:function(){this._pause()}},{key:"reverse",value:function(){this.direction=-this.direction}}],[{key:"build",value:function(t,n){delete t.animationSettings,t.options=ht(t.options,t.root,"5c7f360c"),t.animations.map((function(n){n.settings=ht(n.s,t.root,"5c7f360c"),delete n.s,t.animationSettings||(t.animationSettings=n.settings)}));var e=t.version;if(!(t=lt(t,n)))return null;var r=t.options||{},i=new this(t.animations,t.animationSettings,e);return{el:t.svg,options:r,player:i}}},{key:"push",value:function(t){return this.build(t)}},{key:"init",value:function(){var t=this,n=window.__SVGATOR_PLAYER__&&window.__SVGATOR_PLAYER__["5c7f360c"];Array.isArray(n)&&n.splice(0).forEach((function(n){return t.build(n)}))}}]),t}();function gt(t){return d(t)+""}function pt(t){var n=arguments.length>1&&void 0!==arguments[1]?arguments[1]:" ";return t&&t.length?t.map(gt).join(n):""}function dt(t){return t?null==t.a||t.a>=1?function(t){if(!t)return"transparent";var n=function(t){return parseInt(t).toString(16).padStart(2,"0")};return function(t){for(var n=[],e="#"===t[0]?n.push("#"):0;e<t.length;e+=2){if(t[e]!==t[e+1])return t;n.push(t[e])}return n.join("")}("#"+n(t.r)+n(t.g)+n(t.b)+(null==t.a||t.a>=1?"":n(255*t.a)))}(t):"rgba("+t.r+","+t.g+","+t.b+","+t.a+")":"transparent"}function mt(t){return t?"url(#"+t+")":"none"}!function(){for(var t=0,n=["ms","moz","webkit","o"],e=0;e<n.length&&!window.requestAnimationFrame;++e)window.requestAnimationFrame=window[n[e]+"RequestAnimationFrame"],window.cancelAnimationFrame=window[n[e]+"CancelAnimationFrame"]||window[n[e]+"CancelRequestAnimationFrame"];window.requestAnimationFrame||(window.requestAnimationFrame=function(n){var e=Date.now(),r=Math.max(0,16-(e-t)),i=window.setTimeout((function(){n(e+r)}),r);return t=e+r,i},window.cancelAnimationFrame=window.clearTimeout)}();var bt={f:null,i:function(t,n,e){return 0===t?n:1===t?e:{x:L(t,n.x,e.x),y:L(t,n.y,e.y)}},u:function(t,n){return function(e){var r=n(e);t.setAttribute("rx",gt(r.x)),t.setAttribute("ry",gt(r.y))}}},wt={f:null,i:function(t,n,e){return 0===t?n:1===t?e:{width:L(t,n.width,e.width),height:L(t,n.height,e.height)}},u:function(t,n){return function(e){var r=n(e);t.setAttribute("width",gt(r.width)),t.setAttribute("height",gt(r.height))}}};Object.freeze({M:2,L:2,Z:0,H:1,V:1,C:6,Q:4,T:2,S:4,A:7});var xt={},_t=null;function At(t){var n=function(){if(_t)return _t;if("object"!==("undefined"==typeof document?"undefined":e(document))||!document.createElementNS)return{};var t=document.createElementNS("http://www.w3.org/2000/svg","svg");return t&&t.style?(t.style.position="absolute",t.style.opacity="0.01",t.style.zIndex="-9999",t.style.left="-9999px",t.style.width="1px",t.style.height="1px",_t={svg:t}):{}}().svg;if(!n)return function(t){return null};var r=document.createElementNS(n.namespaceURI,"path");r.setAttributeNS(null,"d",t),r.setAttributeNS(null,"fill","none"),r.setAttributeNS(null,"stroke","none"),n.appendChild(r);var i=r.getTotalLength();return function(t){var n=r.getPointAtLength(i*t);return{x:n.x,y:n.y}}}function kt(t){return xt[t]?xt[t]:xt[t]=At(t)}function St(t,n,e,r){if(!t||!r)return!1;var i=["M",t.x,t.y];if(n&&e&&(i.push("C"),i.push(n.x),i.push(n.y),i.push(e.x),i.push(e.y)),n?!e:e){var u=n||e;i.push("Q"),i.push(u.x),i.push(u.y)}return n||e||i.push("L"),i.push(r.x),i.push(r.y),i.join(" ")}function Ot(t,n,e,r){var i=arguments.length>4&&void 0!==arguments[4]?arguments[4]:1,u=St(t,n,e,r),o=kt(u);try{return o(i)}catch(t){return null}}function jt(t,n,e){return t+(n-t)*e}function Mt(t,n,e){var r=arguments.length>3&&void 0!==arguments[3]&&arguments[3],i={x:jt(t.x,n.x,e),y:jt(t.y,n.y,e)};return r&&(i.a=Et(t,n)),i}function Et(t,n){return Math.atan2(n.y-t.y,n.x-t.x)}function Pt(t,n,e,r){var i=1-r;return i*i*t+2*i*r*n+r*r*e}function It(t,n,e,r){return 2*(1-r)*(n-t)+2*r*(e-n)}function Rt(t,n,e,r){var i=arguments.length>4&&void 0!==arguments[4]&&arguments[4],u=Ot(t,n,null,e,r);return u||(u={x:Pt(t.x,n.x,e.x,r),y:Pt(t.y,n.y,e.y,r)}),i&&(u.a=Ft(t,n,e,r)),u}function Ft(t,n,e,r){return Math.atan2(It(t.y,n.y,e.y,r),It(t.x,n.x,e.x,r))}function Nt(t,n,e,r,i){var u=i*i;return i*u*(r-t+3*(n-e))+3*u*(t+e-2*n)+3*i*(n-t)+t}function Tt(t,n,e,r,i){var u=1-i;return 3*(u*u*(n-t)+2*u*i*(e-n)+i*i*(r-e))}function qt(t,n,e,r,i){var u=arguments.length>5&&void 0!==arguments[5]&&arguments[5],o=Ot(t,n,e,r,i);return o||(o={x:Nt(t.x,n.x,e.x,r.x,i),y:Nt(t.y,n.y,e.y,r.y,i)}),u&&(o.a=Bt(t,n,e,r,i)),o}function Bt(t,n,e,r,i){return Math.atan2(Tt(t.y,n.y,e.y,r.y,i),Tt(t.x,n.x,e.x,r.x,i))}function Dt(t,n,e){var r=arguments.length>3&&void 0!==arguments[3]&&arguments[3];if(Ct(n)){if(Vt(e))return Rt(n,e.start,e,t,r)}else if(Ct(e)){if(Gt(n))return Rt(n,n.end,e,t,r)}else{if(Gt(n))return Vt(e)?qt(n,n.end,e.start,e,t,r):Rt(n,n.end,e,t,r);if(Vt(e))return Rt(n,e.start,e,t,r)}return Mt(n,e,t,r)}function Lt(t,n,e){var r=Dt(t,n,e,!0);return r.a=x(function(t){return arguments.length>1&&void 0!==arguments[1]&&arguments[1]?t+Math.PI:t}(r.a)),r}function Ct(t){return!t.type||"corner"===t.type}function Vt(t){return null!=t.start&&!Ct(t)}function Gt(t){return null!=t.end&&!Ct(t)}var zt=new T;var Yt={f:gt,i:D},$t={f:gt,i:C};function Ut(t,n,e){return t.map((function(t){return function(t,n,e){var r=t.v;if(!r||"g"!==r.t||r.s||!r.v||!r.r)return t;var i=e.getElementById(r.r),u=i&&i.querySelectorAll("stop")||[];return r.s=r.v.map((function(t,n){var e=u[n]&&u[n].getAttribute("offset");return{c:t,o:e=d(parseInt(e)/100)}})),delete r.v,t}(t,0,e)}))}var Qt={gt:"gradientTransform",c:{x:"cx",y:"cy"},rd:"r",f:{x:"x1",y:"y1"},to:{x:"x2",y:"y2"}};function Ht(t,n,r,i,u,o,a,l){return Ut(t,0,l),n=function(t,n,e){for(var r,i,u,o=t.length-1,a={},l=0;l<=o;l++)(r=t[l]).e&&(r.e=n(r.e)),r.v&&"g"===(i=r.v).t&&i.r&&(u=e.getElementById(i.r))&&(a[i.r]={e:u,s:u.querySelectorAll("stop")});return a}(t,i,l),function(i){var u=r(i,t,Jt);if(!u)return"none";if("c"===u.t)return dt(u.v);if("g"===u.t){if(!n[u.r])return mt(u.r);var o=n[u.r];return function(t,n){for(var e=t.s,r=e.length;r<n.length;r++){var i=e[e.length-1].cloneNode();i.id=Wt(i.id),t.e.appendChild(i),e=t.s=t.e.querySelectorAll("stop")}for(var u=0,o=e.length,a=n.length-1;u<o;u++)e[u].setAttribute("stop-color",dt(n[Math.min(u,a)].c)),e[u].setAttribute("offset",n[Math.min(u,a)].o)}(o,u.s),Object.keys(Qt).forEach((function(t){if(void 0!==u[t])if("object"!==e(Qt[t])){var n,r="gt"===t?(n=u[t],Array.isArray(n)?"matrix("+n.join(" ")+")":""):u[t],i=Qt[t];o.e.setAttribute(i,r)}else Object.keys(Qt[t]).forEach((function(n){if(void 0!==u[t][n]){var e=u[t][n],r=Qt[t][n];o.e.setAttribute(r,e)}}))})),mt(u.r)}return"none"}}function Jt(t,e,r){if(0===t)return e;if(1===t)return r;if(e&&r){var i=e.t;if(i===r.t)switch(e.t){case"c":return{t:i,v:z(t,e.v,r.v)};case"g":if(e.r===r.r){var u={t:i,s:Zt(t,e.s,r.s),r:e.r};return e.gt&&r.gt&&(u.gt=function(t,n,e){var r=n.length;if(r!==e.length)return B(t,n,e);for(var i=new Array(r),u=0;u<r;u++)i[u]=D(t,n[u],e[u]);return i}(t,e.gt,r.gt)),e.c?(u.c=V(t,e.c,r.c),u.rd=L(t,e.rd,r.rd)):e.f&&(u.f=V(t,e.f,r.f),u.to=V(t,e.to,r.to)),u}}if("c"===e.t&&"g"===r.t||"c"===r.t&&"g"===e.t){var o="c"===e.t?e:r,a="g"===e.t?n({},e):n({},r),l=a.s.map((function(t){return{c:o.v,o:t.o}}));return a.s="c"===e.t?Zt(t,l,a.s):Zt(t,a.s,l),a}}return B(t,e,r)}function Zt(t,n,e){if(n.length===e.length)return n.map((function(n,r){return Kt(t,n,e[r])}));for(var r=Math.max(n.length,e.length),i=[],u=0;u<r;u++){var o=Kt(t,n[Math.min(u,n.length-1)],e[Math.min(u,e.length-1)]);i.push(o)}return i}function Kt(t,n,e){return{o:C(t,n.o,e.o||0),c:z(t,n.c,e.c||{})}}function Wt(t){return t.replace(/-fill-([0-9]+)$/,(function(t,n){return"-fill-"+(+n+1)}))}var Xt={fill:Ht,"fill-opacity":$t,stroke:Ht,"stroke-opacity":$t,"stroke-width":Yt,"stroke-dashoffset":{f:gt,i:D},"stroke-dasharray":{f:function(t){var n=arguments.length>1&&void 0!==arguments[1]?arguments[1]:" ";return t&&t.length>0&&(t=t.map((function(t){return d(t,4)}))),pt(t,n)},i:function(t,n,e){var r,i,u,o=n.length,a=e.length;if(o!==a)if(0===o)n=Y(o=a,0);else if(0===a)a=o,e=Y(o,0);else{var l=(u=(r=o)*(i=a)/function(t,n){for(var e;n;)e=n,n=t%n,t=e;return t||1}(r,i))<0?-u:u;n=$(n,Math.floor(l/o)),e=$(e,Math.floor(l/a)),o=a=l}for(var s=[],f=0;f<o;f++)s.push(d(L(t,n[f],e[f])));return s}},opacity:$t,transform:function(t,n,r,i){if(!(t=function(t,n){if(!t||"object"!==e(t))return null;var r=!1;for(var i in t)t.hasOwnProperty(i)&&(t[i]&&t[i].length?(t[i].forEach((function(t){t.e&&(t.e=n(t.e))})),r=!0):delete t[i]);return r?t:null}(t,i)))return null;var u=function(e,i,u){var o=arguments.length>3&&void 0!==arguments[3]?arguments[3]:null;return t[e]?r(i,t[e],u):n&&n[e]?n[e]:o};return n&&n.a&&t.o?function(n){var e=r(n,t.o,Lt);return zt.recomposeSelf(e,u("r",n,D,0)+e.a,u("k",n,V),u("s",n,V),u("t",n,V)).toString()}:function(t){return zt.recomposeSelf(u("o",t,Dt,null),u("r",t,D,0),u("k",t,V),u("s",t,V),u("t",t,V)).toString()}},r:Yt,"#size":wt,"#radius":bt,_:function(t,n){if(Array.isArray(t))for(var e=0;e<t.length;e++)this[t[e]]=n;else this[t]=n}},tn=function(t){!function(t,n){if("function"!=typeof n&&null!==n)throw new TypeError("Super expression must either be null or a function");t.prototype=Object.create(n&&n.prototype,{constructor:{value:t,writable:!0,configurable:!0}}),n&&l(t,n)}(o,t);var n,e,i=(n=o,e=s(),function(){var t,r=a(n);if(e){var i=a(this).constructor;t=Reflect.construct(r,arguments,i)}else t=r.apply(this,arguments);return c(this,t)});function o(){return r(this,o),i.apply(this,arguments)}return u(o,null,[{key:"build",value:function(t){var n=h(a(o),"build",this).call(this,t,Xt);if(!n)return null;n.el,n.options,function(t,n,e){t.play()}(n.player)}}]),o}(yt);return tn.init(),tn}));
(function(s,i,o,w,d,a,b){w[o]=w[o]||{};w[o][s]=w[o][s]||[];w[o][s].push(i);})('5c7f360c',{"root":"eAFYybTv4zo1","version":"2022-05-04","animations":[{"elements":{"eAFYybTv4zo28":{"transform":{"data":{"o":{"x":417.742905,"y":596.763565,"type":"corner"},"t":{"x":-417.742905,"y":-596.763565}},"keys":{"r":[{"t":80,"v":-0.600654},{"t":1000,"v":1.145982}]}}},"eAFYybTv4zo29":{"transform":{"data":{"o":{"x":511.870758,"y":650.010864,"type":"corner"},"t":{"x":-511.870758,"y":-650.010864}},"keys":{"r":[{"t":0,"v":3.926679},{"t":1000,"v":1.895753}]}}},"eAFYybTv4zo30":{"transform":{"data":{"o":{"x":407.571594,"y":683.486755,"type":"corner"},"t":{"x":-407.571594,"y":-683.486755}},"keys":{"r":[{"t":0,"v":2.050717},{"t":10,"v":0},{"t":1000,"v":0.419499}]}}},"eAFYybTv4zo47":{"transform":{"data":{"t":{"x":-877.180267,"y":-534.62709}},"keys":{"o":[{"t":0,"v":{"x":877.462743,"y":538.457851,"type":"corner"}},{"t":1000,"v":{"x":875.310319,"y":535.906265,"type":"corner"}}]}}},"eAFYybTv4zo49":{"transform":{"data":{"o":{"x":843.869965,"y":425.089203,"type":"corner"},"t":{"x":-843.869965,"y":-425.089203}},"keys":{"r":[{"t":0,"v":0.216717},{"t":1000,"v":0.140076}]}}},"eAFYybTv4zo52":{"transform":{"data":{"o":{"x":843.869965,"y":405.231522,"type":"corner"},"t":{"x":-843.869965,"y":-405.231522}},"keys":{"r":[{"t":0,"v":-1.726295},{"t":1000,"v":-2.571695}]}}},"eAFYybTv4zo63":{"transform":{"data":{"t":{"x":-980.940613,"y":-501.5275}},"keys":{"o":[{"t":0,"v":{"x":980.937744,"y":501.527512,"type":"corner"}},{"t":1000,"v":{"x":980.940613,"y":501.5275,"type":"corner"}}]}}},"eAFYybTv4zo78":{"transform":{"data":{"o":{"x":705.356659,"y":417.805388,"type":"corner"},"t":{"x":-711.853638,"y":-417.805389}},"keys":{"s":[{"t":0,"v":{"x":1,"y":1}},{"t":1000,"v":{"x":1.312088,"y":1.461384}}]}}},"eAFYybTv4zo92":{"transform":{"data":{"t":{"x":-445.477493,"y":-209.355995}},"keys":{"o":[{"t":0,"v":{"x":445.477494,"y":212.82,"type":"corner"}},{"t":1000,"v":{"x":437.773003,"y":204.236709,"type":"corner"}}]}}},"eAFYybTv4zo107":{"transform":{"data":{"o":{"x":633.888062,"y":217.717499,"type":"corner"},"t":{"x":-633.888062,"y":-217.717499}},"keys":{"r":[{"t":0,"v":0},{"t":1000,"v":-367.650299}]}}}},"s":"MGDA1ZGM0NmJhZGJlYmKJhYWJkYjJiOGI3NmIQ4MzdhNzk3OTc5NzU2TYmFkSmIyYmJhZWFjYVmRiMlJiOFBiN0M2YjVgzN2FBNzU2YmIyYmRFhZWJiYWFiZGIyVWI4BYjdNYmM2YjgzNzk3NWTZiYWZDYjJiNWI1NmII4MzdhNzU2YmFhYjVGiZGFlYmJiN1NhYWJkKYWU2YjgzYWZhYWI1YOmNhZVI3NTZiYmNiOWOFlYWVhZDZiODM3YTcY1NmJhZmI5YmM2YjgzON2E3OTc5YzY/"}],"options":"MRDAxMDg4MmY4MDgxWDGZlN2Y4MTJmNDcyZjcD5N2M2ZTcxMmY4YQ|"},'__SVGATOR_PLAYER__',window,document)
]]></script>
</svg>
